<svg id="Ebene_1" data-name="Ebene 1" xmlns="http://www.w3.org/2000/svg" viewBox="0 0 1920 1080"><defs><style>.cls-1{fill:#b2b2b2;}.cls-2{fill:#01deb9;}.cls-3{fill:#02deb7;}.cls-4{fill:#02dfba;}.cls-5{fill:#02deba;}.cls-6{fill:#02ddb9;}.cls-7{fill:#02dfb9;}.cls-8{fill:#01debd;}.cls-9{fill:#00e0bc;}.cls-10{fill:#06dfbc;}.cls-11{fill:#2bc2cc;}.cls-12{fill:#22c9ca;}.cls-13{fill:#41b9ca;}.cls-14{fill:#00e0b5;}.cls-15{fill:#02dbc0;}.cls-16{fill:#04ddb5;}.cls-17{fill:#06dab9;}.cls-18{fill:#3fbbcf;}.cls-19{fill:#02dfb8;}.cls-20{fill:#02dfb5;}.cls-21{fill:#04ddba;}.cls-22{fill:#04dcbf;}.cls-23{fill:#2ec5cc;}.cls-24{fill:#06ddb3;}.cls-25{fill:#26c8ca;}.cls-26{fill:#07dab4;}.cls-27{fill:#27c5cc;}.cls-28{fill:#07dbb6;}.cls-29{fill:#22cac6;}.cls-30{fill:#30c3c9;}.cls-31{fill:#20cbc8;}.cls-32{fill:#06dabb;}.cls-33{fill:#27c3c8;}.cls-34{fill:#08dabe;}.cls-35{fill:#05d9c3;}.cls-36{fill:#09d2b7;}.cls-37{fill:#2dc2cb;}.cls-38{fill:#07ddae;}.cls-39{fill:#3fbace;}.cls-40{fill:#04ddc6;}.cls-41{fill:#3cbccd;}.cls-42{fill:#29c5d2;}.cls-43{fill:#0cd2c8;}.cls-44{fill:#05d8c0;}.cls-45{fill:#30c4cc;}.cls-46{fill:#0ecfb8;}.cls-47{fill:#2ac6ce;}.cls-48{fill:#2cc5cd;}.cls-49{fill:#02dfb4;}.cls-50{fill:#11bbb7;}.cls-51{fill:#22cac5;}.cls-52{fill:#47b8ce;}.cls-53{fill:#09d7b4;}.cls-54{fill:#0cdab3;}.cls-55{fill:#35becb;}.cls-56{fill:#14cabb;}.cls-57{fill:#0ed5bd;}.cls-58{fill:#3fbad4;}.cls-59{fill:#41aacc;}.cls-60{fill:#4bb6d0;}.cls-61{fill:#4ab2ce;}.cls-62{fill:#46afc6;}.cls-63{fill:#0cd6cc;}.cls-64{fill:#13cfbb;}.cls-65{fill:#50aed9;}.cls-66{fill:#2ac7ca;}.cls-67{fill:#37bfcb;}.cls-68{fill:#15ccbb;}.cls-69{fill:#10ccb9;}.cls-70{fill:#0fd5be;}.cls-71{fill:#23cac6;}.cls-72{fill:#40b9cd;}.cls-73{fill:#08d2c4;}.cls-74{fill:#0ed8c6;}.cls-75{fill:#10d2c5;}.cls-76{fill:#2dc8c6;}.cls-77{fill:#31cbcf;}.cls-78{fill:#35c2c4;}.cls-79{fill:#46b0cb;}.cls-80{fill:#08d4bf;}.cls-81{fill:#39b3d2;}.cls-82{fill:#4fb7d4;}.cls-83{fill:#00dec0;}.cls-84{fill:#00debe;}.cls-85{fill:#01dfb4;}.cls-86{fill:#01dfb2;}.cls-87{fill:#08daba;}.cls-88{fill:#09dab8;}.cls-89{fill:#0ad9b8;}.cls-90{fill:#0bd9b7;}.cls-91{fill:#08dcb4;}.cls-92{fill:#0cd7c0;}.cls-93{fill:#0bd8be;}.cls-94{fill:#02dfaa;}.cls-95{fill:#12d6b4;}.cls-96{fill:#000303;}.cls-97{fill:#05dbbf;}.cls-98{fill:#00e3af;}.cls-99{fill:#16d3c4;}.cls-100{fill:#5badcf;}.cls-101{fill:#23cbc4;}.cls-102{fill:#010507;}.cls-103{fill:#0adab2;}.cls-104{fill:#08dbb2;}.cls-105{fill:#28a2af;}.cls-106{fill:#0adabc;}.cls-107{fill:#0bdab8;}.cls-108{fill:#0ad9ae;}.cls-109{fill:#0dd8b6;}.cls-110{fill:#000102;}.cls-111{fill:#40bbcb;}.cls-112{fill:#08dbba;}.cls-113{fill:#000101;}.cls-114{fill:#3ebccc;}.cls-115{fill:#05dbc5;}.cls-116{fill:#0fd8b8;}</style></defs><path d="M959.5,899.91q-177.45,0-354.91.09c-3.75,0-4.59-.85-4.59-4.59q.15-355.41,0-710.82c0-3.75.84-4.59,4.59-4.59q355.41.15,710.82,0c3.75,0,4.59.84,4.59,4.59q-.15,355.41,0,710.82c0,3.74-.84,4.59-4.59,4.59Q1137.45,899.84,959.5,899.91Z"/><path class="cls-1" d="M624.09,539.48q0-164.93-.11-329.86c0-4.57,1.17-5.64,5.67-5.64q330.38.18,660.73,0c4.57,0,5.64,1.17,5.64,5.67q-.18,330.36,0,660.73c0,4.57-1.17,5.64-5.67,5.63q-330.37-.16-660.73,0c-4.57,0-5.64-1.17-5.64-5.68Q624.19,704.92,624.09,539.48Z"/><path d="M629.09,539.46q0-162.44-.12-324.86c0-4.63,1.25-5.62,5.71-5.61q325.37.16,650.72,0c4.63,0,5.62,1.25,5.61,5.71q-.16,325.36,0,650.72c0,4.63-1.25,5.61-5.71,5.61Q960,870.85,634.6,871c-4.63,0-5.62-1.24-5.61-5.7Q629.17,702.39,629.09,539.46Z"/><path class="cls-2" d="M982.82,245a19.88,19.88,0,0,1,9.21-15.9c2.68-1.29,5.41-2.46,8-3.93,6.36-4.16,12.65-1.27,19,.17.74.26.16,1.44,1.1,1.55,6,2.43,10.7,6.07,12.06,12.85a1.69,1.69,0,0,1,.13,1.3,2.37,2.37,0,0,1-1.37.43c1.37,5.77-.09,11.71,1,17.51.12,49.15,0,98.28.06,147.39a3.59,3.59,0,0,0,2,3.76,10.77,10.77,0,0,1,.87.92c1,1.94,1.39,4.36,4.21,4.58a6.86,6.86,0,0,0,3.48.26c2.74-1.35,3.37-3.73,3.42-6.56,0-2.61-.59-5.28.52-7.82a6.25,6.25,0,0,1,3.84-1.86,11.48,11.48,0,0,1,2.27,0c4.6,1.7,2.94,5.71,3.56,9-4-16.16-1.85-32.58-2.16-48.89-.32-16.48-.46-33,.11-49.44.24-6.72.27-13.66,2.25-20.25.58-.55.93.3.43-.13-.11-.09-.21,0-.37.34-1.65,3.22-1.72,6.71-1.39,10.16.26,2.72-.47,4.55-3.14,5.43a2.69,2.69,0,0,1-2.31-.71c-.89-1.25-.2-2.57-.17-3.5-1.31,4.49-1,9.45-1,14.38q0,39.57,0,79.15c0,2.05.76,4.42-1.58,5.9a.9.9,0,0,1-1.35-.69c-.1-33.23,0-66.44,0-99.66a5.42,5.42,0,0,1,.4-2.92c1.43-8.71,8.65-15.83,17-16.8a23.13,23.13,0,0,1,10,0c8.5,2.18,14,7.34,16,16-.3.95-1.57,1.09-1.77,2.13.81-.37,1.6-1,2.49-.16q0,7,.1,14.05c-.6,1.45-.34,3-.34,4.44q0,103.51,0,207c0,1.48-.26,3,.34,4.44v8c-1.88,4.25-.88,8.88-1.76,13.27l-.21,1.71c-1.61,4.7-2.53,9.59-3.81,14.38-2.5,9.6-7.15,18.29-12.56,26.43A111.31,111.31,0,0,1,1034.16,628c-11.2,6.47-23,11.64-36.09,13-2.74,1.48-6.06-.73-8.7,1.37a115,115,0,0,1-26.29,0,11.77,11.77,0,0,0-5.5-.88c-2.8-.21-5.65.47-8.41-.45-1.83-.21-3.77.32-5.46-.84-2-1.74-4.69.23-6.74-1.24A95.71,95.71,0,0,1,910,630.86c-.86-.8-1.73-1.58-3-1-3.42-1.45-6.92-2.73-10-4.91a16.59,16.59,0,0,1-2-4.21c-.35-.35.64-1.5-.48-1.19a24.36,24.36,0,0,0-3.6,1.68,54.76,54.76,0,0,1-15-10.07,2.17,2.17,0,0,1,.12-3.13c1.58-1.69.5-3-.58-4.37.31.59,0-.18.11,0,2.88,4.89,0,5-3.67,4.56-13.23-9.7-23.66-22.25-34.71-34.15-5.81-6.25-11.48-12.63-17.22-19-2.16-4.41-.51-6.3,5.67-6.52.66.63,1.3,1.28,1.94,1.93l-1.34-1.35c-3.61-2.71-5.25,1.29-7.74,2.34-.53.23-.85.94-1.59.49-5.54-6.37-12-11.89-16.94-18.85a8,8,0,0,0-4.05-4.17c-14.58-15.73-29.39-31.26-43.62-47.31-4.87-5.48-5.23-11.59,4.25-19.69a38.38,38.38,0,0,1,18-9c3.06-1.18,6.52.31,9.51-1.39,13.08-1.14,24.26,3.46,33.85,11.94,8.52,7.53,16.62,15.52,24.9,23.32,1.94,1.82,4.24,2.18,6.84,2.17q31.71-.1,63.42,0c2.46,0,5-.44,7.35.76,1.63,1.73,4-.15,5.73,1.19A30,30,0,0,1,939,495.14c.83,2.49-.65,6.19,3,6.83a3.5,3.5,0,0,1-2.64-4.1c.4-2,2.09-1.62,3.55-.92a62.32,62.32,0,0,1,20,15.14c2.42,2.72,4.93,4.3,8,2,3.53-2.7,2.09-5.94-.44-8.57-3.06-3.17-6.35-6.12-9.55-9.17-.44-1.51-1.21-2.56-3-2.18-10-6.94-21.22-11.23-33-14.07-3-1.43-6.38.21-9.42-1-20.19.1-40.38.28-60.57.26-5,0-2.21-4-2.71-6.3,1.66-1.94,3.94-1.47,6-1.47,14.78,0,29.56,0,44.33-.05,1.78,0,3.65.51,5.23-.54-8.32-1-16.57-.28-24.8-.4-8.43-.13-16.86,0-25.29-.05-2,0-4,.31-5.51-1.49-.06-6.49-.17-13-.17-19.48q0-82.71,0-165.42c0-7.8,2.26-14.66,7.83-20.28.94,2,3.21,2.75,4.26,4.63l-.13-.15c-.86-1.8-3.29-2.44-4.09-4.53,3.38-4.1,7.43-6.92,13-6.78,4.73-1.46,9.43-.55,14.14.12,7.77,1.35,17.11,12.73,17.05,20.05.82,1.74.41,3.6.41,5.4q0,61.57,0,123.16c0,1.81-.35,3.66.38,5.42,2.2,5.22,5,5.78,9.41,1.87,1.91-1.75,1.16-4.06,1.16-6.14q.06-76.71,0-153.41c.14-1.92-.33-3.88.37-5.76.11-.85.22-1.7.32-2.55,2.06-1.64,1.92-4.23,2.73-6.4,5.66-13.64,24.67-20.3,36-12.59.56.83,1.62.37,2.31.88,1.85-.25,2,2.36,3.75,2.26a6.24,6.24,0,0,0,2.12,1.8c5.1,5.71,9.4,11.77,8.78,20-3.09,7-3.66,14.32-3.63,21.91q.24,60.44,0,120.87c0,4.94.33,9.91-1.56,14.77-1.27,3.26.9,4.91,4,5.4,2.93-.52,5.22,3.54,8.43,1.19,1.8-.82,2.52-2.42,3-4.18,2.47-1.38,3.34,1.92,5.35,1.8,2.13-2.36-.52-5.67,1.61-8,1.9-3.06,1.35-6.47,1.36-9.75.06-48.72,0-97.43.06-146.13a4.78,4.78,0,0,1,1.81-3.89c1.09-1,1.6-2.17.43-3.45-.68-.74-1.6-1.46-2.61-1.06-1.42.58-.95,1.89-.77,3a8.1,8.1,0,0,1,.05,1c0,2.43-.87,4.45-3.37,4.8C982.76,249.85,983.14,247.05,982.82,245Z"/><path class="cls-2" d="M1064.05,800.94c7.76,6.43,8.51,17.87,1.7,25.93a4.73,4.73,0,0,0-3,3.1c-.07,4.14,2.65,7.32,3.83,11,.94,3,2.27,5.79,3.43,8.68,1.09,2.68.17,4.15-2.71,4.16-2.58,0-5.26.6-7.68-.87-2.27-5.21-4.7-10.36-6.71-15.66-1-2.65-2.11-4.16-5.23-3.7-3.55.52-2.21,3-2.29,5-.18,4.43-.22,8.87-.31,13.31-3.37,3.29-7.11,2.47-10.9,1q0-26.9,0-53.81c6.56-2.19,13.25-.87,19.89-.76a30,30,0,0,0,4.23.2A30.24,30.24,0,0,0,1064.05,800.94Z"/><path class="cls-3" d="M982.82,245c1.45.49.78,3.84,3.3,2.67,1.68-.78,1.67-2.5,1.58-4.31a59.79,59.79,0,0,1,.53-7.48c8.91,5.92,9.41,7.55,3.76,11.19-1.67,1.85-1,4.12-1,6.19q-.07,73.51-.07,147c0,2.27.63,4.68-1,6.75-.74,3.32,1.78,7.29-2,10-1.13-.9-1-2.3-1.42-3.5-.77-1.47-1.91-2.71-2.7-4.18-1-2.21-.88-4.54-.88-6.87q0-70.35,0-140.7c0-4.26.79-8.54-.86-12.68C982,247.67,981.74,246.23,982.82,245Z"/><path class="cls-4" d="M896.16,852.75c-.14-.77-.16-1.5.64-2,1.72-.5.54-2.1,1.13-3,2.94-12.79,7.67-25,11.33-37.6,1.09-3.76,2.47-7.44,3.71-11.15,3.59-1.58,7.2-.75,10.81-.14q1.59,5,3.16,10c-1.58,2.16-.31,4.35.51,6.1,2.66,5.7,1,10.72-4.93,13.57-3.35-1.41-3.29-4.71-4.18-7.4,0,.1-.14,0-.14.09-1.5,3.77-1.48,8-4,11.34-.68.9-1.71,1.58-1.75,3,.87-.26,1-1.46,1.71-1.56,7.89-1.08,11.61-6.94,15.15-13,.15-.26.54-.34.88-.4,2.11,2.34,1.89,5.24,2,8.08a3,3,0,0,0-1.15,2.6,3,3,0,0,1,1.15-2.59,95.9,95.9,0,0,1,8,22.8,1.34,1.34,0,0,1-.08,1.62c-3.3,1.93-6.9-.36-10.26.77-1.3-.55-1.2-1.91-1.48-2.93-.75-2.76-.18-7.11-2.93-7.75-4.53-1.06-9.47-.42-14.24-.29-1.58,0-1.09,1.79-1.41,2.79-.76,2.33-1.38,4.7-2,7.06C903.85,854.07,900,854.52,896.16,852.75Z"/><path class="cls-3" d="M972,415c-1.81,3.77-3.83.78-5.69.11-3.29-1.19-2.61-4.06-2.07-6.35a68.81,68.81,0,0,0,1.75-16c0-42.22.1-84.43-.18-126.65,0-6.21,1.71-10.93,6-15,0,11.8.15,23.59.16,35.39q0,55.59,0,111.19a21.43,21.43,0,0,1-1,7.22c1.07,1.22-.56,3,.8,4.13.06.92.12,1.83.17,2.75a3,3,0,0,1,.38,1,10.2,10.2,0,0,0-.4,1.63C972,414.63,972,414.82,972,415Z"/><path class="cls-5" d="M1005.43,844.75a.35.35,0,0,1,.52.23,4,4,0,0,0,5,.11h5a1.39,1.39,0,0,0,2,0h2c1.09,1.49,2.84,2.36,3.76,4a2.85,2.85,0,0,1-.33,2.17c-1.49,1.69-4,.78-5.6,2.21a3.26,3.26,0,0,1-2.28.13c-6.42-2.23-12.86-1.37-19.31-.18-.77,0-1.61.14-2.12-.68-.05-17.13,0-34.27-.2-51.4,0-3.12,1.14-4.05,4.08-4q12.72.18,25.45,0c3.22,0,3.56,1.55,3.06,4.09-.77,3.9-2.21,6.51-7.08,5.57-3-.59-6.29-.21-9.45-.27-1.33-.7-2.66-1.19-4,0a.93.93,0,0,1-.78.24c-1.94,1-.09,2.89-1,4.15-1.48,1.76.36,3.37.25,5.08-.43,3.05.53,4.36,4,4.26,4.51-.13,9.07-.69,13.55.39h0a13.78,13.78,0,0,1,0,8h0c-3.88,1.09-7.85.37-11.78.46-6.62.15-5.83-.42-5.64,6C1004.67,838.48,1003.31,841.8,1005.43,844.75Z"/><path class="cls-6" d="M873.05,833.85l-2.11,1c-.93,4.76-.13,9.58-.44,14.35-.1,1.51.8,3.45-1.45,4.26-3.06.53-6.13,1.32-9-.75a17.28,17.28,0,0,1-.7-3.34q-.07-23.4,0-46.81a16.14,16.14,0,0,1,.73-3.34A3,3,0,0,1,862.7,798c7.77.87,15.62-.4,23.37.89l0,0c3,1.36,4.7,4.46,7.6,6l.52,1.88c-.79,2.49-.43,5.12-.94,7.65a3.81,3.81,0,0,1-.72,1.17,25.16,25.16,0,0,0-4.09,2.7,2.83,2.83,0,0,1-2.21.11c-1.81-1.05-2.23-2.73-2.07-4.65.58-2,1.32-4-2.06-3.8-2.93-.36-5.92-2-8.65.54-2.38,4.24-1.89,8.9-2,13.47,0,1.14-.85,2.38.38,3.4,1.41,2.66,3.34.14,5,.5a2.89,2.89,0,0,1,1.95,1.08,3.19,3.19,0,0,1-.24,3.82C876.89,834.14,874.75,832.78,873.05,833.85Z"/><path class="cls-7" d="M959.25,834.07a1.19,1.19,0,0,1-.34.81c-.93,4.73-.12,9.52-.44,14.28-.1,1.49.82,3.43-1.43,4.23-3,.25-6.12,1.45-9-.63a140.23,140.23,0,0,1,0-23.81c1.86-3.4.22-7.19-.15-10.3-.55-4.63,1.44-6.25,4.31-8.22.72-1.47,2-2.47,3-3.68a2.59,2.59,0,0,1,1.35-.37,2.45,2.45,0,0,1,1.21.66c1.47,3.43.27,7.05.67,10.56.2,1.75-.39,3.59.74,5.19.16.12.31.27.48.38a7.78,7.78,0,0,1,1,.65c1.22.94,2.17,0,3.19-.47,4.88-.78,8.14-3.08,8.09-8.53,2.11-4.91-1.32-7.43-4.37-10.12.87-2.86,3-3.15,5.47-2.65,2.64,2.58,7.21,1.42,9.44,4.82,1.57.31,1.51,1.54,1.53,2.72.91,4.28.12,8.56,0,12.84-.13.91.23,2-.9,2.56-3.36.77-3.54,4.65-6.08,6.23-2.38.71-4.38,2.44-7,2.58C966.49,833.33,962.85,832.88,959.25,834.07Z"/><path class="cls-8" d="M1030,409q0-76,0-152c2.5-2.24,1.08-5.23,1.52-7.88s-1.07-5.49.47-8.11c.06-.45.11-.89.17-1.33,1.68.87,2,2.36,1.86,4.08.73,1,.47,2.24.47,3.38q0,80,0,160.07a14.52,14.52,0,0,1-.12,1.48C1033,410.36,1031.52,410.18,1030,409Z"/><path class="cls-9" d="M988,413v4c-3.92-.06-2.44-5.4-5.84-6q-.07-54.57-.15-109.14c0-17.61.11-35.22.16-52.82,1,1.53,1.58,3.25,3.12,4.44.91.7,1.8,2.07.68,3-2.91,2.36-1.92,5.49-1.93,8.34q-.07,67.8-.06,135.59c0,3.37.13,6.64,2,9.58C985.88,411.55,986.93,412.3,988,413Z"/><path class="cls-10" d="M1089.82,529c-1.17-1.82-.84-3.86-.84-5.84q0-102.11,0-204.23c0-2-.33-4,.84-5.84.06,1.67.17,3.33.17,5V524C1090,525.66,1089.88,527.33,1089.82,529Z"/><path class="cls-11" d="M1034,409q0-82.61,0-165.2c1.69,1.82,1.07,4.11,1.07,6.17q.09,79.8,0,159.58a10.68,10.68,0,0,1-.18,1.48L1034,411A1.3,1.3,0,0,1,1034,409Z"/><path class="cls-12" d="M915.89,253Q916,330.6,916,408.2c0,1.77.42,3.77-1.71,4.82.18-3,.52-5.92.52-8.88q.06-73.54,0-147.11c0-1.32.12-2.65.19-4C915.3,252.45,915.57,252.46,915.89,253Z"/><path class="cls-13" d="M904.91,411.15c-1.19-1.62-.87-3.5-.87-5.3q0-64.35,0-128.69c1.13,1,1,2.42,1,3.73Q905,346,904.91,411.15Z"/><path class="cls-14" d="M916,471c-1.13,2.74-3.58,2-5.6,2-19.41.05-38.82,0-58.23,0v-2c1.39-1.25,3.11-1,4.75-1q27.17,0,54.32,0C912.9,470,914.6,469.83,916,471Z"/><path class="cls-15" d="M916,471H852.18v-2c19.41,0,38.82,0,58.23,0C912.44,469.05,914.89,468.28,916,471Z"/><path class="cls-16" d="M922.86,828c3.64-3.71,4.88-10,2.64-14.23-1.17-2.23-2.59-4.27,1.44-4.83,1.11,3.91,3.25,7.53,3.27,11.74.14,3.16.44,6.32-3.88,7.2-.76.15-1.93,1.54-1.81,2.15,1,5.45-3.12,4.17-5.91,4.78-1.54.34-4-.72-4.08,2.31-.06,1.35-1.08,3.13-2.07,2.17-.78-.76-3.21-1.2-2.31-3.61.6-1.63,1-3.12,2.79-3.74C916.35,830.87,920.08,830.61,922.86,828Z"/><path class="cls-17" d="M892,814.93c-.2-1.12-.1-2.42-.65-3.31-2.24-3.59-.63-4.69,2.84-4.79,4.63,4.38,4.06,16.21-1.19,21.74-.82.86-1.43,2.33-3,2.24-2.06-.41-3.8-1.67-5.9-2.09-1.87-.38-3.17-1.61-2.79-3.84a3.13,3.13,0,0,1,1.3-1.63,3.39,3.39,0,0,1,1.4-.34c6.79-.17,6.79-.17,4-6C888.63,814.82,890.37,815,892,814.93Z"/><path class="cls-18" d="M1045.88,297.81l.18,103.21c.12,3.36,1.79,6.87-1,10Q1045,356,1045,301C1045,299.9,1044.83,298.67,1045.88,297.81Z"/><path class="cls-19" d="M882,825c.88,2.26,2.92,2.1,4.64,1.86,3.47-.51,3.66,1.42,3.33,3.94-2.11,2.5-5,2.14-7.83,2.23l-.61-.24c-1.3-1.17-2.14-2.77-3.52-3.87h-2c-2.14,2-3.35-.59-5-1-.93.5-1.28,2.86-2.2,1.92-1.71-1.74,0-3.46,1.26-4.94a10.4,10.4,0,0,1,1.46-1.19C875.21,822.67,878.92,821.36,882,825Z"/><path class="cls-20" d="M957,806.93h-1c-2.31-5.2-.23-7.38,6.6-7a4.51,4.51,0,0,0,.75-.7,2.12,2.12,0,0,1,1.59-1,6.91,6.91,0,0,1,5.29.55c3.49-.57,6.26,1,8.86,3-1.06,3.54-4.06,1.41-6.09,2.1a4.76,4.76,0,0,0-5,1c-2.65,2.81-6.53.88-9.51,2.45A2.9,2.9,0,0,1,957,806.93Z"/><path class="cls-21" d="M964,800.93c-.64.43-1.52,1.38-1.89,1.22-5.2-2.36-5.35,1.58-6.11,4.78h0c-2.23,2-4.64,2.74-7.39,1-1.73-2.5-.87-5.24-.69-7.91l.19-1a24.94,24.94,0,0,1,15.9,0C964,799.65,964,800.29,964,800.93Z"/><path class="cls-22" d="M947.92,800.06a16.39,16.39,0,0,1,.32,6.9c1,2.7,4.91,1.09,5.76,4a13.69,13.69,0,0,1-.51,2.72c-3.56,0-5.25.58-4,5.05.66,2.38-1.83,5.41.74,8.12,1.12,1.18.86,1.43-2.16,2.12C947.27,819.32,946.68,809.7,947.92,800.06Z"/><path class="cls-23" d="M1016,852.87l2,0c1.5-1.32,3.37-.72,5.08-1a6.1,6.1,0,0,1,3-.05c1.07,1.27.62,2.47-.8,2.48-10.22.08-20.44.67-30.65-.26-.2,0-.34-.81-.51-1.25l1.93,0A45.48,45.48,0,0,1,1016,852.87Z"/><path class="cls-24" d="M890.91,621.25c.26-3.35,3.56-4,5.42-5.86a2.09,2.09,0,0,1,3,.59,1.77,1.77,0,0,1-1,2.79c-1.1.47-2.08,1-2.4,2.23.84,2.4-.16,2.78-2.21,2Z"/><path class="cls-25" d="M964,799l-15.9,0c-.08-1,.38-1.6,1.37-1.6q9.46,0,18.92,0a1.74,1.74,0,0,1,1.83,1.36Z"/><path class="cls-26" d="M871.91,608.25c.67-1.51,3.6-.18,3.38-2.14-.38-3.23-4-2.66-6.81-4.46,3.31-.83,5.68-1.42,7.73,1,2.5,2.92,1.48,5.76-.28,8.56A7.26,7.26,0,0,1,871.91,608.25Z"/><path class="cls-27" d="M1055.08,798.79l-20.91.23a1.36,1.36,0,0,1,1.47-1.54c6.5.13,13-.73,19.5.42.34.22.45.42.32.61S1055.21,798.79,1055.08,798.79Z"/><path class="cls-28" d="M943,497c-3.34.57-3.17,2.61-.72,3.52,2.28.85,3.28,3.37,5.95,3.33-3.63,2.36-5.82-.33-8.23-2-2.68-1.81-1.58-4.32-1-6.7A6,6,0,0,1,943,497Z"/><path class="cls-29" d="M1005.43,844.75c-3.18-.51-1.51-2.81-1.44-4.3.52-11.65.56-11.66,12.06-11.63,2,0,4,.07,5.94.11-4.32,1.56-8.79.56-13.18.65-2.79.06-3.89.93-3.71,3.76C1005.35,837.13,1005.33,840.94,1005.43,844.75Z"/><path class="cls-30" d="M886.07,798.93l-26,.25c-.05-.68,0-1.55.78-1.53C869.28,797.85,877.8,796,886.07,798.93Z"/><path class="cls-31" d="M1022,820.92c-4,0-7.93-.15-11.87.19-4.76.41-6.81-1.41-6.16-6.17a2.91,2.91,0,0,1-.06-4c.14-1.39-1.57-3.39,1.3-3.87-.23,13.05-.23,13,12.54,13.2C1019.17,820.26,1020.75,819.66,1022,820.92Z"/><path class="cls-32" d="M816.92,552c3-4.52,6.2-5.58,9.12-3h0c-2.33,1.25-2.33,1.25-2.48,4.7-1.84.38-1.43-3-3.24-2.13-1.66.79-.14,2.37-.33,3.58Z"/><path class="cls-33" d="M1059.62,853c2.3,0,4.61-.09,6.92-.06s3.37-1,3.47-3.23c2.43,4.78,2.41,5-2.84,4.7C1064.66,854.24,1061.62,856,1059.62,853Z"/><path class="cls-34" d="M973,803.93l6.09-2.09a7.24,7.24,0,0,1,3.45,5C979.52,805.37,975.62,806.7,973,803.93Z"/><path class="cls-35" d="M1045.1,411c1.68-3.19.44-6.66,1-10l.91,0h0c0,3.09.2,6.21-.12,9.27s-.76,6.35-4.95,6.69a1.09,1.09,0,0,1-.09-1.59A7.15,7.15,0,0,0,1045.1,411Z"/><path class="cls-36" d="M1088.06,550.28c-.16-4.52-2.29-9.31,1.76-13.27A31.06,31.06,0,0,1,1088.06,550.28Z"/><path class="cls-37" d="M1034.18,852.83c3.65-.12,7.4.84,10.9-1,.22.86.07,2.14-.59,2.16C1041,854.13,1037.26,856.13,1034.18,852.83Z"/><path class="cls-38" d="M1089.72,299c-2.78,1-.94,3.8-2,5.5-2.8-3.48-2.39-5.67,1.31-7.47A1.86,1.86,0,0,1,1089.72,299Z"/><path class="cls-39" d="M869.08,853c1.9-3.72.56-7.7.93-11.54.21-2.24-.52-4.59.93-6.65,0,5.39.11,10.78.09,16.17,0,1.29.66,3.2-1.85,3.08-.3-.21-.41-.43-.34-.68S869,853,869.08,853Z"/><path class="cls-40" d="M1026.06,851.78l-2.09,1.05a2,2,0,0,1-1-1.92c0-.66,0-1.33,0-2-1.09-1.64-1-3,1-3.83C1028.83,846,1024.84,849.71,1026.06,851.78Z"/><path class="cls-17" d="M893.69,805c-5.11,1.27-4.64-4.53-7.6-6A10.32,10.32,0,0,1,893.69,805Z"/><path class="cls-41" d="M957,853c1.79-3.55.61-7.34.92-11,.21-2.39-.52-4.9.95-7.11.05,5.38.13,10.76.1,16.14,0,1.28.68,3.21-1.85,3.07-.34-.21-.47-.44-.39-.7S956.94,853,957,853Z"/><path class="cls-42" d="M896.16,852.75l11.55.08C904.37,855.22,898.34,855.18,896.16,852.75Z"/><path class="cls-43" d="M1084,566.37a28.78,28.78,0,0,1,3.81-14.38A39.6,39.6,0,0,1,1084,566.37Z"/><path class="cls-44" d="M977.1,831.22c1.34-2.75.66-7.47,6.08-6.23C981.22,827.13,980.9,830.87,977.1,831.22Z"/><path class="cls-45" d="M887,257.12,872.89,257C877.63,254.21,882.33,255.54,887,257.12Z"/><path class="cls-46" d="M1000,225.18a8.13,8.13,0,0,1-8,3.93C994.22,226.83,996.54,224.8,1000,225.18Z"/><path class="cls-47" d="M869.08,853c0,.36.07.71.1,1.06-3.09-.09-6.53,2.09-9.1-1.4Z"/><path class="cls-48" d="M957,853l.12,1.09c-3.07-.23-6.51,2.1-9.11-1.33Z"/><path class="cls-49" d="M1024,845.09l-1,3.83c-3,.3-4.05-.94-3-3.83Z"/><path class="cls-50" d="M971.78,413l.24-1.26c1.68,2.57,3.87,4.12,7.12,3.46-2.5,4.1-4.73-.31-7.1-.24h0A1.45,1.45,0,0,1,971.78,413Z"/><path class="cls-51" d="M984.08,822.43c-1-4.28.07-8.56,0-12.84C985.73,813.87,986,818.15,984.08,822.43Z"/><path class="cls-52" d="M923.78,798.88,913,799C916.54,796.41,920.15,796.68,923.78,798.88Z"/><path class="cls-53" d="M907,629.88c.85-1.39,1.66-3.5,3.61-2.42,1.72.94-.73,2.16-.58,3.4C908.83,631.14,908,630.37,907,629.88Z"/><path class="cls-54" d="M897.93,847.77c.82,1.91,3.33-1.46,3.34.73,0,2.58-2.51,2.38-4.47,2.29C896.91,849.68,896.82,848.5,897.93,847.77Z"/><path class="cls-55" d="M784,451.62c-2.82,2.87-6.33,1-9.51,1.39C777.55,451.58,780.81,451.74,784,451.62Z"/><path class="cls-56" d="M918.93,238.76c-.27,2.41,1.39,5.63-2.73,6.4A10.79,10.79,0,0,1,918.93,238.76Z"/><path class="cls-57" d="M795.93,529c6-3.1,2.63,2.85,4.05,4.17C798.12,532.3,797.07,530.62,795.93,529Z"/><path class="cls-58" d="M959.25,834.07c3.58-2,7.22-1.49,10.88-.27Z"/><path class="cls-59" d="M939.94,852.81c.08-.42.15-.84.22-1.25,1.75,2,.85,2.89-1.39,2.9s-4.5-.22-6.76-.35C934.43,852.3,937.5,854.48,939.94,852.81Z"/><path class="cls-60" d="M915.46,479.05c3.14.36,6.49-1.21,9.42,1C921.71,480,918.51,480.23,915.46,479.05Z"/><path class="cls-61" d="M949.17,641l9.74.09.75.43-.76.41C955.62,642,952.31,642.43,949.17,641Z"/><path class="cls-62" d="M989.37,642.36c2.57-2.53,5.78-1,8.7-1.37C995.38,642.77,992.26,641.86,989.37,642.36Z"/><path class="cls-63" d="M1011,845.09q-2.61,3.81-5-.11Z"/><path class="cls-64" d="M957.21,227.05c-.38.3-.77.59-1.14.89-.91.73-2.22,1.62-2.93.5-.91-1.42,1.32-1.35,1.76-2.27C956,225.63,956.65,226.21,957.21,227.05Z"/><path class="cls-65" d="M1073,281l-10,0A11.55,11.55,0,0,1,1073,281Z"/><path class="cls-66" d="M939.94,852.81c-2.39,2-5.32.65-7.93,1.3l-2.18-.16C933,851.92,936.6,853.44,939.94,852.81Z"/><path class="cls-67" d="M873.05,833.85c1.46-1.27,3.29-.75,5-1a2.8,2.8,0,0,1,3.91-.05l.23.27C879.27,835.08,876.11,833.9,873.05,833.85Z"/><path class="cls-68" d="M963.08,231.11c-.94.43-1.59,2.17-2.78,1.16s.75-1.87.66-3A2.91,2.91,0,0,1,963.08,231.11Z"/><path class="cls-69" d="M893.81,623a2.57,2.57,0,0,0,2.21-2c2.59.75,1,2.57,1,4A4.82,4.82,0,0,1,893.81,623Z"/><path class="cls-70" d="M1018,845.08c-.23,1,.46,2.75-1,2.75s-.76-1.76-1-2.75Z"/><path class="cls-71" d="M1022,828.93v-8A6.54,6.54,0,0,1,1022,828.93Z"/><path class="cls-72" d="M937,638.94c2.29.17,4.79-.78,6.74,1.24C941.43,640,939,640.44,937,638.94Z"/><path class="cls-73" d="M957.89,494.15c2.85-1.82,2.88.26,3,2.18Z"/><path class="cls-74" d="M1006,806.8c1.31-2.82,2.64-1.55,4,0Z"/><path class="cls-75" d="M1064.05,800.94c-2,.1-3.84,0-5.09-1.86.18-.54.47-.61.88-.23A5,5,0,0,1,1064.05,800.94Z"/><path class="cls-76" d="M958.9,642a4.71,4.71,0,0,0,0-.84c1.42.3,3.42-1.33,4.17,1.24A7.46,7.46,0,0,1,958.9,642Z"/><path class="cls-77" d="M1062.75,830c-.38-2.37,1.16-2.88,3-3.1Z"/><path class="cls-78" d="M1041.82,415.41l.09,1.59c-1.14,0-2.33.06-2.79-1.36Z"/><path class="cls-79" d="M926.12,491c-2-.08-4.13.69-5.73-1.19C922.34,490,924.46,489.4,926.12,491Z"/><path class="cls-2" d="M971.85,409c-2.5-.94-.76-2.71-.8-4.13C972.75,406,971.87,407.6,971.85,409Z"/><path class="cls-80" d="M1020.08,226.9c-.35.46-1,1.34-1,1.32-1.33-.89,0-1.9-.1-2.87C1020.07,225.36,1020,226.2,1020.08,226.9Z"/><path class="cls-81" d="M915.89,253a7.56,7.56,0,0,1-.82.07c-.09-1.84-.67-3.75.81-5.35C915.89,249.47,915.89,251.23,915.89,253Z"/><path class="cls-82" d="M1059.84,798.85a7.13,7.13,0,0,0-.88.23l-3.88-.29a5.26,5.26,0,0,1,.05-.89C1056.77,797.92,1058.51,797.39,1059.84,798.85Z"/><path class="cls-3" d="M1052,305.06c2.66-3.68,1.86-7.93,2-12,.19-4.39,4.62-7.22,7.86-5.14-5.45,3.18-6.8,7-4.61,13.6a3.43,3.43,0,0,1-.14,3.31c-1.47,2.09-1.13,4.46-1.14,6.77,0,27.65,0,55.3,0,82.94,0,5.65,3.21,10.84,2.07,16.62-.31,1.56.24,3.27-.81,5.19a12.26,12.26,0,0,1-3.29-9.15c0-2.15,1-4.83-1.93-6.12-1.64-1.57-1.49-3.62-1.49-5.6q0-42.39,0-84.78C1050.49,308.67,1050.34,306.63,1052,305.06Z"/><path class="cls-14" d="M1082,305.06c3.12,1.47,1.94,4.34,2,6.63q.09,73.68,0,147.36c0,23.81,0,47.62,0,71.44,0,3.64,1,7.24.13,10.92-.35,1.47-.26,3-2.07,3.59-1.41-1.74-1-3.81-1-5.77q0-114.19,0-228.39C1081,308.87,1080.57,306.8,1082,305.06Z"/><path class="cls-15" d="M1082,305.06q0,120,0,239.94c-3.14-1.46-2-4.33-2-6.62q-.11-65.65,0-131.33,0-47.93,0-95.87C1080,309,1079,306.35,1082,305.06Z"/><path class="cls-83" d="M990,407V242.27c2.46,1.31,1.8,3.16,2,4.81q0,76.65,0,153.32C991.94,402.69,993.12,405.56,990,407Z"/><path class="cls-3" d="M1047,401c0-29.23.08-58.47-.07-87.7,0-4.85,1.25-9.54,1.11-14.36-.08-2.29,2.14-3.1,3.13-5.43,1.92,4.56-.57,7.93-1.16,11.51,1.39,1.74,1,3.82,1,5.78q0,42.21,0,84.42c0,2,.41,4-1,5.77-.21,1,.46,2.78-.93,2.9s-1-2.17-2.07-2.89Z"/><path class="cls-84" d="M1050,401v-96h2q0,48,0,96Z"/><path class="cls-85" d="M1032,241.08c1.38,4,1,8.18,1,12.31,0,2.08-.59,3.59-3,3.68,0-3.15-.15-6.31,0-9.45.22-3.78,0-7-5.17-6.94C1027.89,236.3,1030,238.53,1032,241.08Z"/><path class="cls-86" d="M969,523c1.37.61,4.21-1,4.05,1.95-.12,2.34-2.63,2.14-4.41,2.05s-4.32.68-4.16-2.07S967.31,523.33,969,523Z"/><path class="cls-87" d="M865.57,582.32c.73-.37,1.62-.84,2,.23s-.31,1.78-1.35,2.21c-3.74,1.51-6.64-.68-6.17-4.68.15-1.34.31-3,2.06-2.7,2.17.35.41,1.67.32,2.59C862.2,582.45,862.44,582.62,865.57,582.32Z"/><path class="cls-88" d="M859.87,263.78c3.21.86,4.72,3.86,7.16,5.71a1.63,1.63,0,0,1,.56,2.17c-.63,1-1.49.4-2-.17-2.18-2.35-5.33-4-5.73-7.66Z"/><path class="cls-32" d="M826,549c4.77,0,4.76,3.66,5.35,6.89-2.33-1.87-5.66-3-5.36-6.89Z"/><path class="cls-89" d="M804.9,464.53c-2.73-1.62-5.8-1.36-8.94-1.92C800.11,460,802.57,460.45,804.9,464.53Z"/><path class="cls-90" d="M1066.65,592.18a3.8,3.8,0,0,1-2.37-2.74c-.2-.86.18-1.78,1.21-1.44a3.18,3.18,0,0,1,2.23,2.87C1067.76,591.51,1067.6,592.17,1066.65,592.18Z"/><path class="cls-91" d="M890,263.07c1.76-2.67,2.54-.25,3.39.75.67.79.73,2.16-.3,2.55-2.35.9-1.24-1.59-2-2.32-.35-.34-.72-.65-1.08-1Z"/><path class="cls-92" d="M785.21,507.55c.08.86-.42,1.19-1.12,1.21a1.63,1.63,0,0,1-1.73-1.37c-.16-.65-.05-1.42.75-1.48C784.21,505.84,784.75,506.72,785.21,507.55Z"/><path class="cls-93" d="M1034,409c0,.65,0,1.31.07,2-2.15,1-4.44,2.32-4-2Z"/><path class="cls-91" d="M890,263.08a4.14,4.14,0,0,1-3.62,3.25c0-2.76,1.63-3.17,3.61-3.26Z"/><path class="cls-94" d="M968.06,518.23c-1.59.37-2.07.64-2.43.52s-.54-.62-.8-1a3.58,3.58,0,0,1,1.24-.42A8.41,8.41,0,0,1,968.06,518.23Z"/><path class="cls-95" d="M842.45,492.65c-.21-.19-.6-.39-.6-.59,0-.59.48-.78,1-.59a.81.81,0,0,1,.38.71C843.11,492.39,842.73,492.49,842.45,492.65Z"/><path class="cls-96" d="M1045.32,807.07c4.79.26,10.37-2.18,13.46,3.91a10.68,10.68,0,0,1,.14,7.9c-1.05,2-1.87,4.12-4.22,5a16.57,16.57,0,0,1-8.81.13l-.84-1C1044.32,817.66,1043.71,812.35,1045.32,807.07Z"/><path class="cls-97" d="M1066,816.92c-2.79.15-4.49-1-3.8-3.94.4-1.72,1-4.23,3.79-2.05C1067.72,812.92,1067.43,814.92,1066,816.92Z"/><path class="cls-98" d="M1066,816.92c0-2,0-4,0-6,.31-.74,1-1.82,1.52-.74C1068.58,812.63,1069.87,815.46,1066,816.92Z"/><path class="cls-99" d="M1045.32,807.07l-.27,15.9C1043.47,817.64,1043,812.33,1045.32,807.07Z"/><path class="cls-100" d="M1045.89,824l8.81-.13A8.93,8.93,0,0,1,1045.89,824Z"/><path class="cls-101" d="M1058.92,818.88q-.08-3.95-.14-7.9A6.79,6.79,0,0,1,1058.92,818.88Z"/><path class="cls-2" d="M988,413c-1.36-.53-3.81-.35-2-3Z"/><path class="cls-102" d="M922.86,828c-.43,1.65,1.41,4.43-.64,4.83-3,.58-6.43,1.68-9.28-.89l5.09-17c1.34-.45,1.59.55,1.92,1.45C920.08,820.44,921.44,824.22,922.86,828Z"/><path class="cls-103" d="M905.29,842.33c-1.76-2.21-2.43-4.12-1.71-6.26a1,1,0,0,1,1.62-.29C906.48,837.68,906.21,839.73,905.29,842.33Z"/><path class="cls-16" d="M932.17,828.76c-.4,3,.62,7.27-6.2,5.33,3.51-1.08,3.79-4.18,6.2-5.34Z"/><path class="cls-16" d="M932.64,836.84c1.72,2.53,1.24,4.48-.23,5.86-.76.71-3.14.57-2.14-1.28C931,840.09,931.82,838.72,932.64,836.84Z"/><path class="cls-104" d="M921.64,810.54c-2.61-1.25-3.63-2.43-3.22-4.86C920.92,806.32,921.07,808.1,921.64,810.54Z"/><path class="cls-105" d="M920,816.35,918,814.9c.06-.67.32-1.41,1.08-1.08C920.16,814.28,920,815.4,920,816.35Z"/><path class="cls-2" d="M968.16,411.51c-.38.19-.78.56-1.15.54-.8-.06-.91-.78-.72-1.37.1-.31.61-.5.94-.74Z"/><path class="cls-2" d="M971.78,413l.24,2c-.82-.17-2.12.23-2.1-1.08C969.93,413.06,971,413.14,971.78,413Z"/><path class="cls-49" d="M1016,852.87,996,852.79a2.62,2.62,0,0,1,2.64-1.8q7.35,0,14.71,0A2.59,2.59,0,0,1,1016,852.87Z"/><path class="cls-106" d="M999,847.7c-1.23-3.2-1.39-6.39-.07-10.81A15.58,15.58,0,0,1,999,847.7Z"/><path class="cls-107" d="M1003.9,810.91l.06,4c-1.19-.21-3,.43-3.23-1.29C1000.45,811.57,1002.17,811.06,1003.9,810.91Z"/><path class="cls-49" d="M1023,850.91l1,1.92h-6C1019,850.31,1021.16,851.1,1023,850.91Z"/><path class="cls-108" d="M1010.82,804.43c-.39-1.91.29-3.17,1.48-3,2,.23.63,1.32.09,2A7.33,7.33,0,0,1,1010.82,804.43Z"/><path class="cls-109" d="M1003.94,803.19c-.38.31-.74.82-1,.78-.76-.14-.86-.85-.63-1.43.12-.3.64-.44,1-.65C1003.49,802.28,1003.69,802.68,1003.94,803.19Z"/><path class="cls-110" d="M882,825l-10.56-.27c-1.79-5.87-1.05-11.78-.36-17.69,3.95-.07,7.94-.73,11.73,1,2.15,1,3.39,2.47,3.17,4.94.29,1.68-.83,3.6.86,5,.81,3.31-.36,5.34-3.8,5.91Z"/><path class="cls-19" d="M883.05,823.91l3.8-5.91,1.17-1.07c2.67.84,3.91,3.47,6.54,4.73C891.05,825.68,887.11,825.1,883.05,823.91Z"/><path class="cls-111" d="M871.09,807.05l.36,17.69-1.37.16C870.56,819,868.73,812.89,871.09,807.05Z"/><path class="cls-112" d="M871,827.92c2.11-1.89,3.29.91,5,1C873.64,832.14,872,831.67,871,827.92Z"/><path class="cls-112" d="M881.92,832.77l-3.91.06c0-1.3,0-2.6,0-3.9C880.76,828.75,882.31,829.78,881.92,832.77Z"/><path class="cls-17" d="M886,813c-1-1.65-2.11-3.29-3.17-4.94C885.85,808.4,889.46,808.41,886,813Z"/><path class="cls-113" d="M974.13,814.93c-.48,8-2.21,9.68-10.13,10.15-1.69.95-3.32,1.29-4.79-.41l0-.06c-2.7-5.7-1.22-11.56-.7-17.39C969.16,803.69,974.35,806.6,974.13,814.93Z"/><path class="cls-34" d="M974.13,814.93c-2.23-8-2.73-8.28-15.06-7.89l-.62.28-.52-.44c2.83-3.35,6.69-1.42,10.06-2C973.24,805.83,975.36,809.28,974.13,814.93Z"/><path class="cls-20" d="M954,810.94c-2.65-.28-6.43,1.08-5.76-4l7.76,0A6.51,6.51,0,0,1,954,810.94Z"/><path class="cls-22" d="M957,806.93c.31,0,.62,0,.93,0l.09.07a71,71,0,0,1,0,18c-3.49-3.88-.37-8.45-1.27-12.63C956.41,810.6,956.9,808.72,957,806.93Z"/><path class="cls-114" d="M958,824.91q0-9,0-18l1.05.08q.09,8.79.19,17.58Z"/><path class="cls-115" d="M959.21,824.67l4.79.41C962.18,827.52,960.54,827.89,959.21,824.67Z"/><path class="cls-116" d="M974.86,828.32a4.82,4.82,0,0,1-.61-1.39c0-.64.27-1.3,1.07-.94.28.12.47.8.42,1.19S975.27,827.82,974.86,828.32Z"/><path class="cls-19" d="M892,814.93c1.28.38,2.79-2.95,3.81.14.38,1.15.49,3-1.14,3.24-2.16.26-2.22-1.88-2.67-3.38Z"/><path class="cls-21" d="M963.91,800.89c1.11.29,2.9-.44,3,1s-1.35.9-2.15.3A4.76,4.76,0,0,1,963.91,800.89Z"/><path class="cls-17" d="M888.47,822.18c-.22-.25-.66-.54-.72-.89a1.1,1.1,0,0,1,.91-1.38c.28,0,.8.48.89.83C889.72,821.4,889.36,821.93,888.47,822.18Z"/></svg>