<svg id="Ebene_1" data-name="Ebene 1" xmlns="http://www.w3.org/2000/svg" viewBox="0 0 1920 1080"><defs><style>.cls-1{fill:#b2b2b2;}.cls-2{fill:#0c7be9;}.cls-3{fill:#0c7ce9;}.cls-4{fill:#0c7cea;}.cls-5{fill:#0b7de9;}.cls-6{fill:#0a7de9;}.cls-7{fill:#0a7deb;}.cls-8{fill:#0e7ae8;}.cls-9{fill:#0e79e6;}.cls-10{fill:#0c7ae9;}.cls-11{fill:#0a7cea;}.cls-12{fill:#0d7cea;}.cls-13{fill:#0c7beb;}.cls-14{fill:#097de8;}.cls-15{fill:#0f7ae9;}.cls-16{fill:#087ee9;}.cls-17{fill:#0c7aeb;}.cls-18{fill:#0c7be8;}.cls-19{fill:#0e7aeb;}.cls-20{fill:#0a7be9;}.cls-21{fill:#0d7ceb;}.cls-22{fill:#0a7eeb;}.cls-23{fill:#0b7ceb;}.cls-24{fill:#0f79eb;}.cls-25{fill:#1582f3;}.cls-26{fill:#0a7ce8;}.cls-27{fill:#0e7bec;}.cls-28{fill:#177bec;}.cls-29{fill:#077dea;}.cls-30{fill:#0781eb;}.cls-31{fill:#0f7aea;}.cls-32{fill:#0b7ae4;}.cls-33{fill:#0a7bea;}.cls-34{fill:#0889fc;}.cls-35{fill:#1178e7;}.cls-36{fill:#0e80ef;}.cls-37{fill:#0890fa;}.cls-38{fill:#068cf6;}.cls-39{fill:#1079e8;}.cls-40{fill:#077fe7;}.cls-41{fill:#1077e9;}.cls-42{fill:#0c7eeb;}.cls-43{fill:#087ce5;}.cls-44{fill:#1278ec;}.cls-45{fill:#1277ea;}.cls-46{fill:#0c7be4;}.cls-47{fill:#1a7ceb;}.cls-48{fill:#1c7ee9;}.cls-49{fill:#1473d8;}.cls-50{fill:#087de4;}.cls-51{fill:#0b7be5;}.cls-52{fill:#0b7ae8;}.cls-53{fill:#0a7de4;}.cls-54{fill:#1376e5;}.cls-55{fill:#0480ec;}.cls-56{fill:#1378e8;}.cls-57{fill:#1376e6;}.cls-58{fill:#1079ec;}.cls-59{fill:#087ce6;}.cls-60{fill:#0b7de6;}.cls-61{fill:#0e79e3;}.cls-62{fill:#077ee0;}.cls-63{fill:#1075e2;}.cls-64{fill:#227be5;}.cls-65{fill:#097ce5;}.cls-66{fill:#0c79dd;}.cls-67{fill:#0a78db;}.cls-68{fill:#0482e9;}.cls-69{fill:#087ce4;}.cls-70{fill:#1282e6;}.cls-71{fill:#0682eb;}.cls-72{fill:#0e79e9;}.cls-73{fill:#1276e8;}.cls-74{fill:#1374df;}.cls-75{fill:#0f75e1;}.cls-76{fill:#0c78e2;}.cls-77{fill:#1476e2;}.cls-78{fill:#237deb;}.cls-79{fill:#1772e3;}.cls-80{fill:#068cf5;}.cls-81{fill:#1776eb;}.cls-82{fill:#1477e5;}.cls-83{fill:#0384e0;}.cls-84{fill:#1476f4;}.cls-85{fill:#1e70da;}.cls-86{fill:#0b7ae5;}.cls-87{fill:#2181f3;}.cls-88{fill:#1970dd;}.cls-89{fill:#14256a;}.cls-90{fill:#0784e5;}.cls-91{fill:#0386eb;}.cls-92{fill:#1279e2;}.cls-93{fill:#1475ec;}.cls-94{fill:#0a79e7;}.cls-95{fill:#078cf6;}.cls-96{fill:#018ae9;}.cls-97{fill:#176ad7;}.cls-98{fill:#018eea;}.cls-99{fill:#1c83ef;}.cls-100{fill:#2281f0;}.cls-101{fill:#1373df;}.cls-102{fill:#2481f4;}.cls-103{fill:#087de8;}.cls-104{fill:#1377ea;}.cls-105{fill:#257de8;}.cls-106{fill:#1277e9;}.cls-107{fill:#057eeb;}.cls-108{fill:#077dee;}.cls-109{fill:#0e79f3;}.cls-110{fill:#1279f4;}.cls-111{fill:#077cf6;}.cls-112{fill:#0189e4;}.cls-113{fill:#0f78f0;}.cls-114{fill:#1379e7;}.cls-115{fill:#0381e6;}.cls-116{fill:#137adf;}.cls-117{fill:#1776e6;}.cls-118{fill:#137ae0;}.cls-119{fill:#1886f3;}.cls-120{fill:#1d73f0;}.cls-121{fill:#0289f0;}.cls-122{fill:#0a7ce9;}.cls-123{fill:#058ff9;}.cls-124{fill:#0881ec;}.cls-125{fill:#000102;}.cls-126{fill:#0a7feb;}.cls-127{fill:#1a75ea;}.cls-128{fill:#0a7cfc;}.cls-129{fill:#0385ed;}.cls-130{fill:#107ae9;}.cls-131{fill:#0282ee;}.cls-132{fill:#1278f2;}.cls-133{fill:#1278e9;}.cls-134{fill:#1373f1;}.cls-135{fill:#010205;}.cls-136{fill:#057ff2;}.cls-137{fill:#1875ea;}.cls-138{fill:#0688f2;}.cls-139{fill:#0480f0;}.cls-140{fill:#0582e9;}.cls-141{fill:#1c86f7;}.cls-142{fill:#0e7bdf;}</style></defs><path d="M1319.91,540q0,177.71.09,355.41c0,3.75-.85,4.59-4.59,4.59q-355.41-.15-710.82,0c-3.75,0-4.59-.84-4.59-4.59q.15-355.41,0-710.82c0-3.75.84-4.59,4.59-4.59q355.41.15,710.82,0c3.74,0,4.59.84,4.59,4.59Q1319.82,362.29,1319.91,540Z"/><path class="cls-1" d="M961,876.91q-165.18,0-330.36.1c-4.46,0-5.7-1-5.69-5.61q.18-330.36,0-660.73c0-4.46,1-5.7,5.61-5.69q330.36.18,660.72,0c4.47,0,5.7,1,5.7,5.61q-.18,330.36,0,660.72c0,4.47-1,5.71-5.61,5.7Q1126.22,876.81,961,876.91Z"/><path d="M1291.91,541.5q0,162.43.11,324.87c0,4.55-1.13,5.65-5.66,5.65q-325.36-.18-650.73,0c-4.55,0-5.65-1.13-5.65-5.66q.18-325.36,0-650.73c0-4.55,1.13-5.65,5.66-5.65q325.36.18,650.73,0c4.55,0,5.65,1.13,5.65,5.66Q1291.81,378.57,1291.91,541.5Z"/><path class="cls-2" d="M1060.63,606A99.58,99.58,0,0,1,1036,632c-.59-.52-1.14-1.09-1.71-1.63.56.55,1.12,1.11,1.65,1.7-2.14,1.9-4.12,4-7,4.84a2.89,2.89,0,0,0-2.92-1.1,2.37,2.37,0,0,1,2.15,1.28,52,52,0,0,1-19,11,2.91,2.91,0,0,0-.73-.46,3.32,3.32,0,0,1,.71.46c-5.13,2.72-10.41,5-16.22,5.81-1.45-1-2.75.15-4.12.26a1.55,1.55,0,0,0-.67,1,3.43,3.43,0,0,1-3.19.75,7.24,7.24,0,0,0-4.61-.17,1.31,1.31,0,0,1,1.85.36A32.24,32.24,0,0,1,969,657.87a50.24,50.24,0,0,0-13.91,0,109.8,109.8,0,0,1-36.26-7.39c-14.34-5.46-27.47-13-38.74-23.5-1.41-2-2.61-4.14-5.1-5-2.57-2.44-5.25-4.78-7-7.94,1.21-1.71,2.42-3.41,3.62-5.13,2.15-3.11-.25-8.56-4-9-.44,0-.86.41-1.19.74l-.28.27c.17-.14.32-.3.53-.46,4.08-1.62,3.9,2.35,5.41,4.09,1.32,1.53,1,2.83-.33,4.32a41.63,41.63,0,0,0-3.71,5.18,11.19,11.19,0,0,1-3.29-4c.45-.82-.44-.74-.73-1.07A68.83,68.83,0,0,1,853,591c-.47-5.77-3.59-10.77-4.82-16.33-.32-1.43-1.3-1.18-2.24-.52-6.31-19.13-9.05-38.54-4.47-58.49A24.11,24.11,0,0,1,843,512a34,34,0,0,0,3-8.05h0c.78-.5,1.77-.73,2.27-1.63a3,3,0,0,0,.75-1.44c0-.36-.09-.73-.16-1.08,4.77-9.26,12.37-15.63,21.16-20.8.75-.69,2.34.49,2.63-1.19.81-1.13,1.71-2.09,3.28-1.86,1.88-.16,4.14.71,5.13-1.87a30.62,30.62,0,0,1,14-3c11.71,1,23.44.24,35.16.41,2.93,0,5.93.62,8.8-.5h1c.85.71,1.88.53,2.85.53h60.2a4.89,4.89,0,0,0,2.89-.45c7.15,1.45,11.51,7.32,10.58,14.59-.62,4.89-1.24,9.83-3.51,14.33a4.58,4.58,0,0,0-2.13,3.84C1004.71,516.3,994.66,523.57,981,526c-4.45-.46-8.92.33-13.37-.09a3.29,3.29,0,0,1-1.55-.58,12.16,12.16,0,0,0-1.89-1.62,4.66,4.66,0,0,0-1.82-.76c-12.69-.5-25.39-1.23-38,.42a13.81,13.81,0,0,0-2.5,1.57c-1.59.73-3.57.56-4.87,2-2.32,3.26-3.05,6.37.87,9,1.66.93,3.48.88,5.32,1,16,.93,28.93,7.72,38.67,20.38,3.86,5,6.21,10.88,8.13,16.9.9,1,.5,2.24.56,3.39-1,4.2-1.85,8.2.54,12.49,1.89,3.38-1.61,7.09-.47,11,.49,1.7.26,3.86.92,5.74a4.14,4.14,0,0,1,.34,1,.39.39,0,0,0,.42.36,1.36,1.36,0,0,1,.72-.17c4.59,3.57,8.79,2.54,8.89-2.57.25-12.6,1.26-25.3-3.34-37.51a62.75,62.75,0,0,0-21-28.47c-.75-.57-1.86-.84-1.87-2.64,5.37,0,10.74.06,16.11,0,18.72-.25,33.76-7.77,44.71-23a69.34,69.34,0,0,0,5.06-9.14c1-1.93,2-2.06,3.27-.4,8.1,10.57,18.94,15.21,32.09,14.87.27,1.66-1,1.06-1.79,1.28,1.44-.06,2.87-.18,4-1.32,5.3-.24,10-2.72,15-4.17a1.94,1.94,0,0,0,3-.56c1.15-1.57,2.61-2.08,4.32-1.09a3.6,3.6,0,0,1,1.47,4.8c-1.22,2.77-.52,5.56-.78,7.92,1.11-2-2.12-5.53,2-7.11,1.19,21.47-1,42.41-9.88,62.28-3.19.41-4.27,3.09-5.21,5.43-1.17,2.92-2.67,5.68-3.78,8.58-1.37,3.6-3.42,5.79-7.41,5.85C1058.35,603.16,1060.19,604.13,1060.63,606Z"/><path class="cls-3" d="M869.84,278a26.61,26.61,0,0,1,1.35,9.7c.55,2-1.39,1.78-2.27,2.52-2.24,1.94.57,3.31.56,5,0,3.62.1,7.11-1.42,10.65a10.67,10.67,0,0,0,.5,9c1.92-2.1,2.29-4.62,2.91-7,.37-1.4.24-3.11,2.49-2.81,1.47,4.86,1.27,9.95,2.14,14.89,0,.24,0,.48,0,.72,0,1.71-.06,3.41,0,5.12.22,8.6,3.14,16.88,3,25.52a3.62,3.62,0,0,0,1.21,2.64c.38,2.19.63,4.4,1,6.59.68.2-.64,1.7.88,1.35q1.32,8.61,2.65,17.22c-2.51,5.26,0,10.36.74,15.43a20.41,20.41,0,0,1-.69,10.18c-1.8,4.94-.91,9.71-.13,13.86-2.19-7.15-.24-14.56,2.49-21.89,1,6,2,12.08,3,18.12.49,2.88,1.09,5.57,5.06,5.43s4.51-2.86,4.92-5.72c2.08-14.6,4.07-29.22,6.18-43.81.38-2.6.18-5.35,1.68-7.71,1.16-2.27-.18-4.83.84-7.11l-.08.13c1.65-1.82-.06-4.24,1.11-6.15,1.43-17.87,5.09-35.44,7.39-53.19,1.41-10.85,3-21.68,4.55-32.51,1-7,2.24-14.06,3.37-21.09a2.17,2.17,0,0,1,3.1.93c.44,1.48,0,2.91-.3,4.34.89-2.62-.26-5.67,1.69-8.08-.54-.35-.8.41-1.29.33-1.83-.05-2.39-1.11-1.56-2.52s.61-2.77,1.06-4.11c1.82-3.81,3.83-7.46,7.92-9.36a11.15,11.15,0,0,0,8.2-.35c5.48-2.71,11.13-1.6,17.23,1.69-1.29-.37-2-1.84-3.46-1.87s-3.11-.57-3-2.49,2-1.36,3.11-1.83a12.38,12.38,0,0,1,4,1.31,25.18,25.18,0,0,1,17.08,23.32c0,9.15-2.11,18.09-3.28,27.12-2.58,20-5.37,40.05-8.14,60.07-.31,2.26-1,4.46-1.53,6.69-.63-.45-1.1-1.27-2.1-.88.55.7,1.65-.07,2.08.84a205.91,205.91,0,0,1-3.93,28.09c-2.92-1.91-1.76-4.77-1.31-7.15.7-3.63,1.66-7-1.82-9.89-1.66-1.39-.92-3.72-1.06-5.66.34,6.76-2,13.63.82,20.29a5.3,5.3,0,0,1,.57,1.26c.64,2.5,0,5-.51,7.34a9.44,9.44,0,0,0,1.06,7.53c-1.09,2.45-3,4.3-4.74,6.24-1.29.68-1.63,2-2.07,3.21a55.17,55.17,0,0,0-4.79,24.14c.2,15.12.67,30.26-.27,45.38-2.74,1-5.59.45-8.37.47-13.8.07-27.6,0-41.4,0a32.83,32.83,0,0,1-4.16,0c.62.52,1.93,0,3.07,0,15.3.05,30.59,0,45.89.05,1.63,0,3.33-.41,4.89.45-1.77,1.89-4,.84-6,.86-13.8.11-27.62.16-41.42,0-4.84-.06-9.53,1-14.3,1.25a19.58,19.58,0,0,1-6.53.72c-1.61-.1.13,1.18-.69,1.21a4.72,4.72,0,0,1-3.67,1.14c-.74.36-1.82-.07-2.27,1-9.81,5-18.89,10.9-26.07,19.41-.36.43-1.18.48-1.78.7a3.4,3.4,0,0,1-1.38-2,3.3,3.3,0,0,0,1.41,1.92c-.16,3.07-3.67,4-4.3,6.78-2.2-.16-1.35-1.9-1.37-3-.08-5.37-.05-10.73,0-16.09,3-5.27,1.86-10.62.11-15.88-1.15-3.43-.34-6.91-.73-10.35-1.09-9.48-2.17-19-2.8-28.48-.34-5.05-2-9.78-2.27-14.8a27.39,27.39,0,0,1,.62-7.8c.18-1.22,1.14-2.09,1.45-3.25-2-3.37-.73-8.06-4.45-10.7a2.56,2.56,0,0,1-.87-1.27c-1.72-12.18-3.76-24.3-4.89-36.55.47-3.93.31-7.71-1.57-11.42a6.3,6.3,0,0,1,.36-6.58c3.17-2.8,1.94-5-.92-7-2.27-4.74-.47-9.62-.56-14.43-.74-2.78.08-5.82-1.42-8.47-.07-.31-.17-.63-.27-.94-.19-.57-.28-.58,0-.17,1.55,2.67.63,5.81,1.65,8.58a20.1,20.1,0,0,1,0,3.72c-.71,1.48,0,4-2.84,3.94-1.36-2.52-1.27-5.24-1.09-8-1.07-1.52,0-3.39-.79-4.95-3.14-17.31-5-34.81-7.25-52.24-.65-5,.82-9.5,3.15-13.8,1.36-1.09,2.63-2.24,2.82-4.13A2.63,2.63,0,0,1,819,226c1-.1,2.12-1,3.08.05-.16-.22-.35-.32-.49-.53a2.46,2.46,0,0,1,.35-1.71c7.09-6,19.11-8.24,27.11-2.74a6.69,6.69,0,0,0,5.1,2.85c7.59,4.29,9.87,11.68,10.94,19.51,1.35,9.83,3.52,19.54,4,29.48C870.08,274.53,869,276.41,869.84,278Z"/><path class="cls-3" d="M1084,472c1.18,10.91-.07,21.17-8.48,29.27-4.33,4.16-9.25,7.35-15.52,7.69a30,30,0,0,0-10-.12c-9.55.72-23.35-13-23-22.83,1.53-2.32.53-4.83.55-7.27.07-12.41-.08-24.82,0-34.87,0,11-.09,24.32.33,37.66,0,1.37.07,2.66-1,3.7-1.74-3.81-.85-7.89-.93-11.81-.23-11.13.29-22.29-.05-33.42-.59-19.32,18.83-36.05,39.31-28.12,0,.07,0,0,0,0A28.18,28.18,0,0,1,1084,437c-1.21.75-1.65-.83-3.4-.88,2.85,1.22,2.36,3.24,2.36,5.05,0,8,0,16,0,24,0,4.45.53,9-3.54,12.37C1082.28,476.62,1081.23,472.82,1084,472Z"/><path class="cls-3" d="M958.87,460.07c-1.51-1.16-.73-2.78-.73-4.17-.09-15.32.06-30.65-.17-46-.25-16.31,10.32-28.57,27.09-30.82,4.65-.62,9,.75,13.13,2.84,2.94,2,6.06,3.71,8.89,5.88,7.48,6.29,9.46,14.65,9.37,24-.14,15.93-.05,31.87,0,47.8,0,3,.05,5.38-4.21,3.07-3-1.65-6.63-1.87-10.18-1.84-13,.1-25.91.06-38.86,0-1.45,0-3,.42-4.26-.78a6.67,6.67,0,0,1,4.67-1.22c13,1.48,26.11.2,38.07.65-11.23,0-23.55,0-35.87,0-2.73-.4-3.32-2.21-3.31-4.66,0-13.62-.09-27.25.11-40.86,0-2.92.58-5.77,0-8.73a7.36,7.36,0,0,1,1.82-7,8.12,8.12,0,0,0-1.92,5.91c.07,16.19,0,32.39,0,48.58,0,2.12.43,4.39-1.57,6A19.8,19.8,0,0,1,958.87,460.07Z"/><path class="cls-4" d="M1032.5,845.81a13.49,13.49,0,0,1-5.83,11.12c-2.53.15-4.2,1.85-6,3.33a17.82,17.82,0,0,1-13.75-.26l0,0c-1.3-.87-2.87-1.15-4.18-2-4.8-2.73-6.78-7.6-7.44-12.4-1.31-9.37-1.82-18.88,1.38-28.13a18.07,18.07,0,0,1,25.32-9.66c1,.67,1.6,2,3.12,1.73,4.21,3.92,7.75,8.19,7.64,14.4A181.2,181.2,0,0,1,1032.5,845.81Z"/><path class="cls-5" d="M957,830.61c-4.55-5.25-5.22-11-1.73-17,3.91-6.66,10.33-8.5,17.53-7.68,6.15.7,11,3.79,13.22,9.83.81,2.21,2.78,5.76-1,6.65-3,.71-7.57,2.59-9-3.05-.85-3.49-3.2-4.7-6.69-4.52-3,.17-4.47,2.05-5.27,4.52-1,3.24.72,5.58,3.31,7.05,4.15,2.36,8.63,4.12,12.7,6.58,6,3.59,8.59,11.44,6.57,18.35-1.78,6.08-7.69,10.1-14.93,10-1.95,0-4,.74-5.86-.4-.67-2.93,1.64-3.29,3.44-3.58,2.89-.45,4.29-2,4.5-4.76,4.37-5.53,2.84-11.39-3.83-14.07-3.62-1.46-7.36-2.59-10.1-5.58C959.17,832,959.4,829.73,957,830.61Z"/><path class="cls-6" d="M867.62,815.06l-.32.1L867,815c-3.47-1.6-6.6-1.57-9,1.89l-2,4.07c-1.61.55-2.27-.94-3.3-1.49,1,1,2.56,1.74,2.12,3.65a3.32,3.32,0,0,1-.72,1.18c-1.91,2.25-1.56,5-1.53,7.61,0,3.8-.18,7.59-.18,11.38.13,1.18,1.35,1.61,1.8,2.58,1.81,6.41,6.55,9.2,11.81,6.95,1.59-.88,3.4-1.4,4.57-2.94,2.07-1.22.19-3.54,1.39-5l-.06,0c2.44-2.72,5.69-1.3,8.37-1.1,2.22.16,1.15,2.86.88,4.56l-2.3,6.6a6,6,0,0,0-3.71,3.43C864.65,866.26,849.75,861,846,848.1c-1.08-2,.17-4.23-.83-6.2-.19-8.75-1.78-17.64,2.08-26a16.16,16.16,0,0,1,12.86-9.7c2.92.75,6-.29,8.83.59,1.1.33,2.84.63,2.57,2.47-.24,1.57-1.52,1.72-2.59,1.61,2.32,1,5.47.25,7.53,2.71a3,3,0,0,1,.37,1.52,3.38,3.38,0,0,1-2.64,2.79C871.47,818.11,870,815.41,867.62,815.06Z"/><path class="cls-7" d="M1085.91,818.88c.28-7.64,6.61-11.77,14-12.76,10.12-1.36,15.61,2.42,19.15,11.78q2.14,3.9-2.19,4.94c-4.06.08-7.86.6-9.27-5.14-.89-3.62-4.92-3.61-8-2.19-2.74,1.28-3.78,3.74-3,7,.44,1.71,1.69,2.75,2.45,4.15,1,1.27,2.76,1.22,3.94,2.2h0c5.1,2.81,5.08,3.12-.46,7.73-2,.66-3.82-.17-5.7-.53v0c-.88-2.08,2.23-1.85,2.05-3.53.08-1.34-.75-2-1.84-2.44,1.42.65,2.09,1.63,1.37,3.21a3.44,3.44,0,0,1-3.17,1.28,15.83,15.83,0,0,1-5.43-3.55c-2.85-1.94-3.39-4.94-3.69-8.06C1086.71,821.55,1086.29,820.22,1085.91,818.88Z"/><path class="cls-8" d="M944,840.85c3.45,11.34-1.81,17.73-8.4,19.81-7.83,2.47-18.9,1.74-23.73-8.58-2.54-7.83-2.19-8.25,6.14-7.48a14.25,14.25,0,0,1,2,.25c2,2.68,1,7.58,6.09,7.87,3,.17,6.45.79,7.57-2.86,1-3.29,1.31-6.94-2.29-9.34-1.23-.83-2.49-1.6-3.74-2.4.62-1.52,1.91-1.76,3.29-1.53A6.81,6.81,0,0,1,935.6,840c1.83,3.42,8.44,3.27,7.07,7.8C943,846.37,940,842.9,944,840.85Z"/><path class="cls-9" d="M1042.9,807.94c.18-.45.36-1.28.54-1.27,7.84.07,15.8-1.77,23.48,1.26-1.53,2.22-6.81,1.85-4.65,6.74.18.39-.83,1.34-1.4,2-1.67,1.78-5.16,1-5.62,4.71-.76,6,.28,7.52,6.56,8.17a3.74,3.74,0,0,1,2.2,1c.83,1.34.27,2.38-.69,3.36-1.06.68-2,1.54-3.07,2.21a5,5,0,0,1-1.48.33q-1.51,0-3,0a7.69,7.69,0,0,1-2.19-.32c-4.73-3.52-5-4.11-4.77-11.25-.72,2.17-1.41,4.59-.39,6.65,3.69,7.44,1.09,15.35,2,23a4.15,4.15,0,0,1-3.29,4.45c-1.8.51-3.3.1-3.85-2,.58-11.44.1-22.87.26-34.3a51.21,51.21,0,0,1,.2-6.44c-.34-1.33,1-2.64.09-4C1043.41,810.79,1044.07,809.18,1042.9,807.94Z"/><path class="cls-10" d="M895.88,806.82c3.69-1.31,5.1-.09,5.09,3.89q-.09,23.43.23,46.87c0,3.19-1.63,3.81-4,3.38s-6.69,2.22-6.76-3.07c-.21-15.62-.33-31.24-.23-46.85,0-1.49-.82-4.77,2.9-4.27,3.15,2.16,4.08,5.09,4,8.92-.16,10.76-.15,21.53-.54,32.29-.06,1.73-.65,3.68.9,5.1,1.54-.92,1-2.42,1-3.63.08-9.42,0-18.84.06-28.25,0-3.19-1.28-6.14-1.52-9.27C897,810.14,895.14,808.77,895.88,806.82Z"/><path class="cls-11" d="M1060,834.92a2.28,2.28,0,0,1,2-1.95c1.16.55,2.17-.4,3.28-.36a3.07,3.07,0,0,1,1.91.66c1.46,1.25,1.69,3.1,2.33,4.76.08.64.15,1.29.23,1.93-2.86,2.16-5.54,4.43-5.11,8.56-.51.57-1.08,1-1.87.5-1.34-.65-1.07-2.09-1.54-3.17-.07-1.47-.16-2.94-1.65-3.81-5.2-2.78-6.38-2.16-6.44,3.46a94.73,94.73,0,0,0,0,10.39c.41,4.22-1.27,5.83-5.29,5.18-1.63-.27-3.69,1-4.83-1.24.65-.48.12-1.54,1-1.92,3.3,0,4.43-1.26,4.32-4.91a186.36,186.36,0,0,0-2.22-25.61c-.85-5-.24-5.15,5.43-7.5,1.79,4.87-3.19,10.91,2.43,15a1.2,1.2,0,0,0,2,0h3C1059.31,835.69,1059.64,835.34,1060,834.92Z"/><path class="cls-12" d="M836,396c-.66,5.46-2.38,11,1.47,16.07.86,1.13-.11,2.56-.17,3.85-.16,3.71-1.51,7.61,1.56,10.89a2.4,2.4,0,0,1,.55,1.82c-1.49,7.15.75,14.18.61,21.28-.06,3.21-.85,6.76,3,8.73a2.32,2.32,0,0,1,.71,2.17c-1.52,2.83-.77,5.79-.83,8.71a3.28,3.28,0,0,1-2.91,3.47c-1.3-1.83.19-4.12-1-6l-.18-3.74c-1.11-4.37.42-8.92-.88-13.28l-.09-1.67c-1.06-3,.21-6.24-.76-9.27l-.26-1.9c-1.16-3.3.51-6.87-1-10.14l0,.07c-.71-5.35-.92-10.77-2-16.07l0,.07c-.61-4.69-1.1-9.4-1.89-14.07-1.23-2.4-1.22-5-1.13-7.56-1-2.05.22-4.4-.88-6.44a167.28,167.28,0,0,1-3.14-21.6c-.95-2,.21-4.35-.82-6.38-.52-2.81-1.79-5.51-1.15-8.47-.46-1.92-1-3.84.29-5.68,2.38,0,1.19,2.09,1.78,3.13.38,12.84,2.73,25.42,5,38,2.1,2.18.19,5.17,1.2,6.83-1-1.68.84-4.65-1.16-6.86,1.11-1.32,3.68-2.61,3.41-.46-.6,4.69,3.26,8.06,2.57,12.47C836.58,393.92,836.83,395.49,836,396Z"/><path class="cls-13" d="M836.21,819.84c1.08.4,1,1.18.69,2-3.42.07-6.95,1.6-10.16-.83-.89-.52-.78-1.33-.63-2.14,0-2.68-1.22-4.42-3.85-4.9-3-.54-5.66-.16-7.22,2.91l-1.08,2c-1,2.24-.22,5.47-3.55,6.39-1.21-.54-1.64.23-2.12,1.18a2.38,2.38,0,0,1-3.19,1.42c-5.85-12,2.44-22.65,17-21.83,2.09.32,3.82,2.15,6.15,1.53a.77.77,0,0,1,.79.43,2.53,2.53,0,0,0,2.2,1.79.71.71,0,0,1,.8.31c.68,1.15,1.08,2.43,1.74,3.58,0,1-.34,2-.21,3.06C833.79,818.38,835.17,819,836.21,819.84Z"/><path class="cls-14" d="M805.1,827.93c3.53-1.78,1.36-5.43,2.57-8.43,2,1.59,1.72,3.71,2.37,5.43,1.24,2.74,3.57,3.59,6.33,3.47,1.6-.07,3.2-.46,4.66.53,1.08,0,2.16,0,2.89,1,.17,1,1.05.63,1.61.89,4.08,1.55,7.89,3.43,9.59,7.89.34,4.48-3.46,7.47-4.21,11.64-.3,1.64-1.16,3,0,4.54a3.74,3.74,0,0,1,.74,2c0,1.08-1,1.53-1.52,2.29l0,0c-4.39,1.1-6.85.13-7.59-2.79-.79-3.1,2.77-3.35,3.39-5.49,1-4.13,1-7.95-3.11-10.56-.7-1.91-2.67-1.51-4-2.21C813.25,836,808.07,833.47,805.1,827.93Z"/><path class="cls-15" d="M911.56,824c-1.24-7.58,2-13.72,9-16.87,6.2-2.82,16.49-1,20.28,3.68.36.45.26,1.27.37,1.91.44,2.54-1.33,2.74-3,2.71a29.77,29.77,0,0,0-5.43.69,10,10,0,0,0-8.88-.14c-3.72,1.66-3.14,5.16-3.29,8.2,0,1,.58,2.14,0,3.25-1.23,1.21-2.44,2.46-4.42,2C913.82,828.22,914.72,824.4,911.56,824Z"/><path class="cls-16" d="M1067,833.92h-2c-1.33-1.54,0-3.7-1.21-5.25-.15-3.59,0-7.2-.34-10.76.17-1.33-.71-1.58-1.77-1.65a2.6,2.6,0,0,1-1.64-1.17c.46-.83,1.5-1.88,1.29-2.45-.78-2-1.65-.19-2.55.15-1.35.5-1.62-.71-2-1.55s-.14-2.09.73-1.85c3.44,1,6.14-2.17,9.45-1.46l0,0c.57.49,1.46.8,1.08,1.85-1.06.91-.56,1.71.19,2.5.48.87.77,1.82,1.28,2.68-.68-1.13-1-2.48-1.92-3.44a1.77,1.77,0,0,1,.57-2,3.07,3.07,0,0,1,2.86.33c6.72,5,6.84,11.78,5,19a1.85,1.85,0,0,0-.94,2.08c-.08.78-.19,1.55-1,2C1071.72,833.3,1069.42,834.2,1067,833.92Z"/><path class="cls-17" d="M959.92,380.05c-3.68.36-5.28-.76-4-4.81A102.26,102.26,0,0,0,958,365.05c2.16-3.34.25-7.06.8-9-.41,2,1.32,5.67-.8,9-2-.71-2-2.43-2-4.11,0-6.81,0-13.63,0-20.44,0-1.29-.76-3.48,1.5-3.51,1.72,0,2.2,1.8,2.36,3.34.92,8.66,4.37,17.09,2.26,26C961.68,371,962.3,375.74,959.92,380.05Z"/><path class="cls-18" d="M1091.11,857.86a11.13,11.13,0,0,1-5.25-6.29c-.87-2.21-2.77-5.24-.75-6.73s5.26-1.47,8.09-.73c1.34.34,1.75,1.21,2.08,2.42.48,1.74,1.19,3.41,1.8,5.11,1,1.62,3,1.15,4.23,2.31a2.07,2.07,0,0,1-.85,2.75c.07,0,0,.23.07.2.85-.36.93-1.26,1.46-1.8,2-1.1,3.81-2.52,6.26-1.57a3.71,3.71,0,0,0,2.78,1,7.83,7.83,0,0,1,1.37.1c1.26.45,2.3,1,1.69,2.66a2.66,2.66,0,0,1-1.78,1.8c-3,.27-5.48,3.43-8.92,1.92h.14C1098.74,862.54,1095.21,859.07,1091.11,857.86Z"/><path class="cls-15" d="M826,850.79c-2.62,5.85-2,7.1,4.2,8.28-2.41,2.36-5.3,2.7-8.43,2-1.25-1.35-2.47-.51-3.69.06-4.23.58-7.46-1.37-10.37-4.12.22-.72.68-1.31.91-2a.81.81,0,0,0-.58-.48,9.35,9.35,0,0,0-2.09.71c-1.35-1.86-3.24-3.45-3-6.09-1-3.16-.54-5.07,3.41-4.29,1.87.37,3.76-1.21,5.63,0C813.68,852.91,818.7,855,826,850.79Z"/><path class="cls-19" d="M895.88,806.82l3.13,3.1c1.13,9.72.22,19.47.48,29.19-1.93,5.43-.43,11.09-1.14,16.6a3.9,3.9,0,0,1-1.34,2.21c-1.18-.35-3.52.69-2.87-2,1.91-7.86.5-15.81.83-23.71.24-5.63-.21-11.29.15-16.9.2-3.2-1.86-5.6-2-8.56Z"/><path class="cls-20" d="M944,840.85c-.64,4.15.75,8.68-2.75,12.92a31.54,31.54,0,0,0-.4-5.49c-.48-1.85.08-5.37-4-3-1.6.93-1.49-1.19-1.8-2.11-1.21-3.6-3.55-5.46-7.45-5.06l-.33.1L927,838c-.79-2.88-3.41-1.23-5-2h0c-1.32-1.79-2.33-3.61-.63-5.75,2-2.46,4.35-2.62,7-1.4,1.79.05,3.5.3,4.74,1.8,2.3,3,6.21,3.78,8.85,6.33A6.86,6.86,0,0,1,944,840.85Z"/><path class="cls-21" d="M1060.63,606c-5.3-1.36-7.27-4-5.55-7.21.88-1.65,2.64-2.48,3.52-1.28,3.12,4.26,3.44-.36,3.92-1.35,1.85-3.83,3-8,4.89-11.82,1.92-4,3.92-4.74,6.7-3A100.11,100.11,0,0,1,1060.63,606Z"/><path class="cls-22" d="M1084,472a5.43,5.43,0,0,0-1,3.25c-.38,5.25-.39,5.25-5.45,7.87-.94-2.44-.45-4.92-.49-7.33,0-1,.27-2.53,1.2-2.5,5.56.24,3.61-3.86,3.67-6.43.18-8,.11-15.95,0-23.93,0-1.55.62-3.29-.63-4.65-1.43.07-.89,1.72-2.25,2.2,0-1.89-.06-3.64,0-5.38a3.08,3.08,0,0,1,1.62-2.9c1-.45,1.49.4,1.83,1.17.52,1.21,1,2.44,1.47,3.65C1084.58,448.69,1084.49,460.35,1084,472Z"/><path class="cls-17" d="M887.19,396.7c-.07,4.17-.28,8.34-1.68,12.32-1.77,5.07,1.49,9.3,2.24,14,.14.92,1.12,1.92-.07,2.6a2.33,2.33,0,0,1-3.07-.9,4,4,0,0,1-1.13-2.18c.2-6.22-2.75-12.47.06-18.62s-1-11.61-1.28-17.43c-.14-3-.55-5.63,2.52-7.32Z"/><path class="cls-20" d="M874,305.07c-1,3.78-2.11,7.53-3,11.34-.68,3.08-3,3-5,2.41-2.71-.77-.57-2.21-.1-3.38.13-.3.37-.66.3-.92-1.71-6.71,2.4-12.87,1.81-19.47-1.24-2.32-1.51-4.64,0-7,.65-3.69,2.39,2,3.18-.37a2.3,2.3,0,0,1,.49,2.43,47.78,47.78,0,0,1-1.34,15.71c0,.8-.27,1.56-.24,2.5.57-.57.26-1.21.37-1.76.31-2.16-.8-5,2.71-5.57Z"/><path class="cls-23" d="M958,220.38c-.68.77-4,1.23-.48,2.54,2.86,1.06,5.57,2.85,9.86,1.78-2.69,3.31-5.28,2.66-7.31,1.85-5.13-2.05-9.83-2.49-15.22-.18-2.39,1-7,3.46-9-1.75a2.7,2.7,0,0,1,1.92-1.63c5.54-2.86,11.5-3.57,17.62-3.39C956.29,219.63,957.4,219.19,958,220.38Z"/><path class="cls-24" d="M1096.85,836c1.75-.17,3.6.19,5.12-1.08,3.4.65,4.73-4.11,8.25-3.16,2.32,2.56,6.54,3.16,7.46,7.18.84,6.15-5.31,8.34-7.37,12.86-.31.68-1.44.6-1.82-.48a6.43,6.43,0,0,1,.35-2.85,17.84,17.84,0,0,0-1.25-6.46c.42-.78-.25-.81-.68-1Z"/><path class="cls-25" d="M967,525c4.66.49,9.46-1,14,1a19.18,19.18,0,0,1-4.3,1c-18.59,0-37.17,0-55.75-.07-.55-1-.59-1.84.53-2.46,1.62-1.09,3.46-1,5.27-1q17.34,0,34.67,0C963.41,523.52,965.44,523.37,967,525Z"/><path class="cls-26" d="M1109,851.93c.12-6.19,6.4-8.25,8.7-13,3.79,7.16,2.48,13.12-2.53,17.41-1.3-1.05-2.58-2.22-4.18-.45h0c-1.25.86-2,.38-2.47-.92C1108.33,853.93,1108,852.82,1109,851.93Z"/><path class="cls-27" d="M1065.87,856.9c-1-1.45-2.31-2.8-2-4.8,1.84-3.45,5.51-7.67,7.15-8.2.74,1.29,2.13,2.26,2,4,.86,1.59,1.08,3.43,2,5v0c.88,1.57,1,3.5,2.12,5l0-.05c.31.59.62,1.36.08,1.8C1074.49,861.77,1067.55,860.06,1065.87,856.9Z"/><path class="cls-15" d="M830.14,859.11l.9-2.2a1,1,0,0,0-1-1c-3.95-.24-2.31-2.88-1.7-4.58,1.61-4.53,3.44-9,6.79-12.64a6.66,6.66,0,0,1,1.82,6.23c-1.76,1.32-1.91,2.66,0,4C836.75,853.7,834.91,857.38,830.14,859.11Z"/><path class="cls-28" d="M866,852.78c-.15.63-.13,1.69-.48,1.82-4.58,1.77-7.44-2.6-11.39-3.43-2-.42-1.74-3.23-1.07-5.23-1.06-6.62-.32-13.27-.44-19.91a4.27,4.27,0,0,1,1.41-3.1c-.34-1.94-2.32-2.67-3.15-4.26-.62-1.18-1.65-2.45,0-3.31s1.7,1,2,1.88a6.89,6.89,0,0,0,3.05,3.68,114.1,114.1,0,0,0-.61,20.82C855.82,850.19,858.34,852.64,866,852.78Z"/><path class="cls-29" d="M846,574.12v-4.93c6.6,5.56,5.94,13.58,8.62,20.17.34.84-.76,1.32-1.56,1.61C849.63,585.8,847.63,580,846,574.12Z"/><path class="cls-30" d="M1084,519c-2.4,4.35.18,9.4-2.24,15.25a41.52,41.52,0,0,1-.37-14.76c.67-4.94.38-5.24-4.34-3.45-1.36.52-2.21-.16-3.06-1l2.81-2.09c1.07-.65,2.45-.87,3.09-2.15l3.81-4.1A39.5,39.5,0,0,1,1084,519Z"/><path class="cls-31" d="M876,813.93c-4,1.16-6.94-2.67-10.81-2.51-1,0-1.45-1.35-1.21-2.37.32-1.33,1.48-1,2.45-.92,1.25.08,2,1.93,4.06.82-3-3.44-7.4-.91-10.43-2.8,4.67-.62,9.25-.52,13.5,1.87,2.34,1.32,4.6,2.7,4.68,5.83C877.54,814.71,876.78,814.3,876,813.93Z"/><path class="cls-32" d="M963,859.79l-2.07-.71c-3.09-2.12-3.18-5.1-2.24-8.27.6-2,1.8-3.46,4.26-2.87,1.08,1.9,1.88,4,4.25,4.79.46,1,1.37.62,2.14.7,1.22.12,2.91-.51,3.24,1.38.36,2.09-1.24,3.06-2.87,3.41C967.47,858.69,965.34,859.7,963,859.79Z"/><path class="cls-33" d="M971,608c-3.16-4.65-3.83-9.47-1.28-14.66.69-1.42-.37-2.8-.85-4.2-1.32-3.85-1.74-7.69,1.15-11.14a.72.72,0,0,1,1.15,0l.56,3c.37,7.88-.32,15.75-.21,23.63C971.53,605.82,972,607,971,608Z"/><path class="cls-34" d="M1006,471.06c-1.44,1.1-3.13.95-4.79.95h-56.4c-1.65,0-3.35.16-4.75-1Q973,470.29,1006,471.06Z"/><path class="cls-35" d="M821,828.93c-1.77-.11-3,1.28-4.52,1.72-4.14,1.18-7.36-1.7-6.47-5.72,1.31-2,2.61-4,3.92-6C813,824.64,817.6,826.36,821,828.93Z"/><path class="cls-36" d="M1026.82,485.24v-50.1H1028c0,6.38-.39,12.79.09,19.13.71,9.26-.83,18.54.59,27.77a4.5,4.5,0,0,1-1.71,4A.63.63,0,0,1,1026.82,485.24Z"/><path class="cls-37" d="M1044,857.91l-1,1.92c-1.29-2.88-.34-5.89-.35-8.81-.06-14.36.11-28.72.2-43.08,1.12,1.12,3,2,1.18,4a2.28,2.28,0,0,1,0,3c1.77,2.54-.25,5-.19,7.59C1044.14,834.31,1044,846.11,1044,857.91Z"/><path class="cls-32" d="M955,853.83c-2.29-2.61-4.21-6.15-2.1-8.83s6-1.7,9.13-.18c.45,3.12-1.92,3.17-3.93,3.6,1.66,1.93,1,3.55-.73,5A3.41,3.41,0,0,1,955,853.83Z"/><path class="cls-38" d="M948,460H892.8v-1h55.25Z"/><path class="cls-39" d="M928.38,828.81c-4.25.49-7.6,1.78-6.4,7.15-3.31-1.63-6.45-3.48-8.16-7a1.57,1.57,0,0,1,2.19-.05l4-2c1.49.05,2.47-1.65,4.08-1.2C925.54,826.72,927.4,827.14,928.38,828.81Z"/><path class="cls-40" d="M932.68,816.08c0-2.15,1.45-2.13,3-2.15,1.92,0,3.92.28,5.5-1.25,1.55.85,2.72,1.9,2.1,3.91a15,15,0,0,0-1.47,1.8,9.42,9.42,0,0,1,1.52-1.75c1.69,1.11.28,2.84.86,4.17-3.06,1.87-6.18,1.43-9.3.2h0c0-2-.3-3.76-2.13-4.9Z"/><path class="cls-41" d="M955,853.83c1.14-1.75,3.3-2.68,2.57-5.75-.47-2,3.87-.78,4.47-3.25,1.33.73.86,2,.91,3.11-4.18,3.08-2,7.31-2,11.14C958.28,858.11,956,856.74,955,853.83Z"/><path class="cls-27" d="M1064,847.93a10.48,10.48,0,0,1-1-4.77c0-4.64.8-5.11,4.92-2.93.44.24,1.22-.16,1.85-.27a.73.73,0,0,1,.32.8C1069.61,846,1067.7,848.26,1064,847.93Z"/><path class="cls-42" d="M880,354.06c-.8-.3-1.83-.75-1.7-1.6,1-6.74-3.42-12.79-2.34-19.55a18.24,18.24,0,0,0-1-7.86.87.87,0,0,1,1-.37c.49.34.62.94,1,1.37.78,2.27,0,4.57.12,6.85.84,1.41.86,3,1.14,4.6.4.8.08,1.82.75,2.55q1,7,2,14C880.65,354.73,880.34,354.73,880,354.06Z"/><path class="cls-43" d="M924.08,825.73c-1.45,1-2.89,2-4,2.78,0,0,0-.78-.09-1.58-3.69-3.84.39-7.3.7-10.92.09-1.07,2-.17,3.1-.07C921.22,819.28,920.91,822.55,924.08,825.73Z"/><path class="cls-44" d="M963,859.79c1.5-1.44,3.42-1.71,5.36-2,1.46-.26,3.33-1,2.74-2.7-.71-2-2.38-.66-3.67-.09a7.48,7.48,0,0,1-1.28.31c-.54-1.33.44-1.85,1.05-2.53l6.68-.06c2.68,2.84,2.61,4.78-1.65,5.71-2.22.49-4.66.65-6.29,2.63A3.38,3.38,0,0,1,963,859.79Z"/><path class="cls-34" d="M939,471c-.13.09-.26.26-.41.27-14.52,1.17-29,1.53-43.55-.18C909.69,470.4,924.35,470.7,939,471Z"/><path class="cls-45" d="M868,306.06c2.66-5,2.6-10.57,3.65-15.91.41,3.64,2,7.11,1.5,10.88-1.83,2.1-.94,4.65-1.17,7C868.66,311.43,868.8,307.84,868,306.06Z"/><path class="cls-46" d="M867.62,815.06c2.41-.32,4.37.87,6.4,1.87.69,2.22,2.2.29,3.26.63,3.39,2.09,2.83,4.56.71,7.19-4.16.85-7.17.14-7.14-5C870.87,817.47,869.12,816.32,867.62,815.06Z"/><path class="cls-27" d="M1067,833.92c1.89-4,4.35-3.57,7.12-.94-.92,2.23-2.79,3.6-4.58,5C1067.77,837.21,1063.84,837.75,1067,833.92Z"/><path class="cls-47" d="M1032.5,845.81c-.67-7.3-1.17-14.59.3-21.86A47.22,47.22,0,0,1,1032.5,845.81Z"/><path class="cls-48" d="M971,608c.45-9-.88-18,.73-26.92,1.43,6.52.53,13.13.75,19.7.08,2.46.34,4.92.51,7.38l-.12.77c-1,.54-1.46-.18-1.86-.92Z"/><path class="cls-49" d="M958,220.38c-5.67.3-11.48-.72-16.82,2.27-.91.51-2.26.24-3.4.34,7.74-4.84,15.78-6,24.22-1.91Z"/><path class="cls-50" d="M1064,847.93c3.71-1,4.86-4.1,6.08-7.17a3,3,0,0,1,.94,3.14c-.62,1.11-1.81,2.26-1.75,3.33.24,4.1-2.34,4.65-5.4,4.87-1-.79-.87-2-1.09-3.08Z"/><path class="cls-24" d="M878,824.75c-.76-2.21.61-4.72-1-6.81a2.2,2.2,0,0,1,.57-1.78,1.8,1.8,0,0,1,2.36-.23c1.2,1.48,1.27,3.37,1.79,5.1C882.82,824.61,881.26,825.54,878,824.75Z"/><path class="cls-51" d="M1110.22,831.77c-1.47.74-3,1.47-3.64,3.12-1.55,4.22-3.06,1.73-4.61,0,1.53-1.84,5.55-3.25,1-6.12C1105.83,828.79,1108,830.3,1110.22,831.77Z"/><path class="cls-52" d="M839.09,467.05c1.38,1.82.79,3.95,1,6,.4,6.65-1,13.38.88,20-.14.45-.18,1.21-.44,1.29-1.69.54-1.37-.84-1.38-1.67-.06-5.25-.06-10.5-.06-15.74C839.05,473.6,839.08,470.32,839.09,467.05Z"/><path class="cls-53" d="M921,525c0,.65,0,1.3-.07,2-5.59,2.42-6.26,4.34-3.13,9-4.41-2.48-4.84-4.87-1.82-10C917.56,525.05,919.11,524.08,921,525Z"/><path class="cls-54" d="M942,836.94c-2.41-.83-4.75-2.59-7.27-.09-.61.6-1.69.22-2.24-.43-1-1.11.2-1.24.87-1.64,2.54-1.5-.24-2.77-.21-4.17C937.06,831.34,939.79,833.76,942,836.94Z"/><path class="cls-55" d="M1028.2,637.06a6,6,0,0,0-5.25,2c-.89.85-2.77.87-2.37-.72.78-3.05,4.08-3.65,6.57-4.45,2.25-.71,1.56,1.73,1.82,3A1,1,0,0,1,1028.2,637.06Z"/><path class="cls-39" d="M922,836a3.68,3.68,0,0,0,3.07-2.88c.52-1.8,1.76-2.57,3.36-1.37s1.21,2.5-.36,3.59c-.92.64-.95,1.7-1,2.7Z"/><path class="cls-43" d="M916,828.92l-2.19.05c-1.89-1.15-1.49-3.35-2.26-5,1.24.06,1.18-2.88,3-1.35C916.64,824.33,916.51,826.6,916,828.92Z"/><path class="cls-56" d="M815,816.93c.92-4,3.94-4.72,7.14-3.94,2.67.66,5.33,2.17,3.93,5.93C822.9,814,820.21,813.5,815,816.93Z"/><path class="cls-57" d="M1109,851.93l0,3c-.33.43-.66.41-1,0-2.39-2-3.93,1.06-6,1-.78-.42-.31-1.5-1-1.95-1.72-.07-3.22-.49-3.86-2.33,8,2.13,9.1,1.82,11.76-3.16C1108.89,849.63,1108.93,850.78,1109,851.93Z"/><path class="cls-58" d="M957,830.61c1.17-1.76,1.89-5.63,4-4.36,2.78,1.67-.46,4.46-1.1,6.77Z"/><path class="cls-59" d="M820.1,312.05l1.92-4c2.14,3.49.39,7.39,1.18,11,.24,2.19.93,4.46-1.28,6.14C820.78,320.91,819.81,316.57,820.1,312.05Z"/><path class="cls-60" d="M881,474.06c.9,1.16,3.73,1.16,2.75,3.26-.7,1.49-2.67-.17-4,.13-1.66.37-2.77-.48-3.84-1.52C877.33,474.56,879.28,474.6,881,474.06Z"/><path class="cls-61" d="M1065.87,856.9c3.37,4.84,7.38,1.86,11.22.91.88.7,1.42,2,.58,2.5-2.85,1.55-6.07.82-9.12.63C1066.32,860.79,1065.84,858.87,1065.87,856.9Z"/><path class="cls-56" d="M836.21,819.84l-5.28-.87c-.93-.16-2.28-.2-1.79-1.59.55-1.55,1.84-.83,2.9-.45,1-.86,1.7-2.14,3.16-2.4C836.75,816.07,836,818.06,836.21,819.84Z"/><path class="cls-62" d="M928,244.08l-2.78-1a16.39,16.39,0,0,1,2.7-9.11c1.76,2-1,4.08.08,6.1C929.31,241.41,928.9,242.74,928,244.08Z"/><path class="cls-63" d="M1006.92,860c4.76.5,9.6,2.14,14.08-1.07,1.08-.74,2.14-1,3.19.05C1018.62,862.45,1012.85,862.68,1006.92,860Z"/><path class="cls-64" d="M934.87,821l9.3-.19c.21.37.43.74.64,1.12C941.37,823,937.89,824.43,934.87,821Z"/><path class="cls-65" d="M1024.19,859l-3.19-.05,4.81-6.32c2.35,1.32-1.47,3.2.86,4.32Z"/><path class="cls-66" d="M812,844.93c-2.08.3-4.18.94-6.23.82-2.9-.17-2.61,1.7-2.81,3.44-.66-1.63-1.95-3.88.05-4.73C805.79,843.26,809.09,842.55,812,844.93Z"/><path class="cls-67" d="M920,844.85a5.56,5.56,0,0,1-1.44.37c-7.43-.1-7.43-.11-6.65,6.86-1.8-2.14-3-5.47-1.34-7C913,842.84,916.78,842.68,920,844.85Z"/><path class="cls-3" d="M821.92,325.23l.13-6.18c3.42.64,4,3.17,3,5.76-.92,2.36-.92,4.71-1.22,7.09a2.17,2.17,0,0,1-1,1.28A24.86,24.86,0,0,1,821.92,325.23Z"/><path class="cls-68" d="M836.93,848.91l-2.28,1.71c.69-2-3.55-6,2.29-5.7C836.93,846.25,836.93,847.58,836.93,848.91Z"/><path class="cls-69" d="M854.16,224c-2.62,2.08-4.68-.79-7.59-.47l2.49-2.38C851.25,221.17,852.77,222.44,854.16,224Z"/><path class="cls-70" d="M1007.08,387.83c-3.78-.54-6-4.18-9.6-5a.53.53,0,0,1-.08-.41,7,7,0,0,1,.79-.49C1002.1,382.48,1004.83,384.79,1007.08,387.83Z"/><path class="cls-71" d="M805.93,855.28c.1-2,.86-3.37,3.12-3.35,1.43,1,1.54,3,3,4-1.25,1.12-2.82,1-4.33,1.13Z"/><path class="cls-72" d="M833.94,411.05a40.4,40.4,0,0,1,2,16.07A77.61,77.61,0,0,1,833.94,411.05Z"/><path class="cls-73" d="M879,464l-4.63-1.93h11.85C883.86,462.9,881.57,464,879,464Z"/><path class="cls-46" d="M858,816.85c1.3-3.93,5.68-4.85,9-1.89C863.9,815,860.63,814.34,858,816.85Z"/><path class="cls-74" d="M881.13,848.32c-.84-4.57-2-5-9.25-3.46,2.31-4.53,6.29-1.88,9.19-1.51C883.13,843.61,881.8,846.56,881.13,848.32Z"/><path class="cls-35" d="M1091.11,857.86c4.45-.19,7.85,3.79,12.42,3.11C1098.74,862.54,1094.8,860.68,1091.11,857.86Z"/><path class="cls-75" d="M932.72,816.11l5.89,1.48L934.85,821Z"/><path class="cls-76" d="M826.74,821.06c3.32,1.09,6.85-.44,10.16.83C833.39,823.05,829.87,824.38,826.74,821.06Z"/><path class="cls-77" d="M875.12,858.35a6.3,6.3,0,0,0,.12-1c-.08-1.61-1.61-3.46.75-4.66s.23,3.6,2.84,2.19A9.86,9.86,0,0,1,875.12,858.35Z"/><path class="cls-72" d="M832.08,397.05A34.49,34.49,0,0,1,834,411.12C833,406.48,832,401.84,832.08,397.05Z"/><path class="cls-78" d="M1059,519.2c-.15.63,3.32,1.12.22,1.69a27.52,27.52,0,0,1-8.37-.28c1.87-1,4.2-.12,6-1.37Z"/><path class="cls-79" d="M818.83,838l7.28-.86c-.33,2.3-2.61,1.72-3.24,3.07Z"/><path class="cls-80" d="M955,657.86a23.48,23.48,0,0,1,13.91,0Z"/><path class="cls-81" d="M1075.11,831l-4.27-3.09c2.26-2,3.68-.21,5.21,1C1076.07,829.79,1076,830.59,1075.11,831Z"/><path class="cls-82" d="M849,503c.43,1.14.75,2.56-.5,3.06-1.68.69-.85-2.4-2.57-2.14.8-1.48,1.39-3.12,2.86-4.15l.4.37C850.12,501.17,849.64,502.09,849,503Z"/><path class="cls-52" d="M838,450c2,4.31.67,8.85.88,13.28C837.63,459,838,454.48,838,450Z"/><path class="cls-83" d="M1106.91,841c.34-.34.66-.7,1-1,.94-.8,2.17-2.27,3.12-.73s-1,1.9-2.06,2.41a6.36,6.36,0,0,1-1.4.33C1107.37,841.68,1107.14,841.35,1106.91,841Z"/><path class="cls-84" d="M825.53,830.8c-1.71.93-3.11,3.07-5.71,1.28.93-1.7,3-1.17,4.1-2.17Z"/><path class="cls-56" d="M831.22,809.85a6.82,6.82,0,0,0-.87,1.17c-.47,1-.59,2.64-2.16,1.93-2.27-1,.25-2,.31-3a8.56,8.56,0,0,1,.52-1.87Z"/><path class="cls-85" d="M874.94,622c3.76-.45,4.53,2.16,5.1,5A13.92,13.92,0,0,1,874.94,622Z"/><path class="cls-3" d="M826,341.05c-1.31,1.67-.93,3.66-1.07,5.55-1.15-2.36-1-4.9-1-7.42l.15-.78c.43-.83.93-2.07,2-1.11A2.39,2.39,0,0,1,826,341.05Z"/><path class="cls-86" d="M816.94,229c1.5,3-.05,4-2.82,4.13C814.35,231.22,815.74,230.15,816.94,229Z"/><path class="cls-87" d="M1050,508.85a12.89,12.89,0,0,1,10,.12A19.68,19.68,0,0,1,1050,508.85Z"/><path class="cls-88" d="M1010.9,503.82c-3.19-3.45-.13-3.42,2.13-3.84C1013.32,501.82,1012.3,502.93,1010.9,503.82Z"/><path class="cls-60" d="M872.61,477.79c.9.26,2.34,0,2.38,1.25,0,1.48-1.26,1.24-2.22,1a29.45,29.45,0,0,1-2.79-1Z"/><path class="cls-24" d="M1100,832.92c-.29,1.79-2.12,2-3.12,3.11l-1.88-1.2c-.36-.21-.47-.41-.35-.61s.24-.29.37-.29l3-1A1.35,1.35,0,0,1,1100,832.92Z"/><path class="cls-3" d="M835.94,427.05c2,3.22.77,6.75,1,10.14C835.83,433.88,835.88,430.47,835.94,427.05Z"/><path class="cls-89" d="M1116.87,822.84c2.35-.93,2.32-2.92,2.19-4.94C1121.72,821.56,1121.41,822.27,1116.87,822.84Z"/><path class="cls-82" d="M846,503.94a10.16,10.16,0,0,1-3,8.05A26.31,26.31,0,0,1,846,503.94Z"/><path class="cls-35" d="M1103.39,861c3.16.25,5.72-2.31,8.92-1.92C1109.66,861.19,1106.79,862.3,1103.39,861Z"/><path class="cls-90" d="M880,354.06h1c.3,2,.61,4,.91,5.94a1.51,1.51,0,0,1-.88,1C879.44,358.89,880.22,356.41,880,354.06Z"/><path class="cls-3" d="M837.18,439.09c1.56,3,.62,6.17.76,9.26C837,445.32,837.15,442.2,837.18,439.09Z"/><path class="cls-91" d="M835.2,814.53a2.92,2.92,0,0,1-3.16,2.4,4.09,4.09,0,0,1,1-3,1.22,1.22,0,0,1,1.89.07A.4.4,0,0,1,835.2,814.53Z"/><path class="cls-46" d="M880,815.93l-1.92,1c-1.31,0-1.57-1.1-2-2v-1l2.24-.08C879.53,814,880,814.75,880,815.93Z"/><path class="cls-35" d="M1111,855.91c1.73-3,3-2.06,4.18.45l-1.06.89A3.8,3.8,0,0,0,1111,855.91Z"/><path class="cls-56" d="M828.23,807.63c-2.66,1.92-4.23-.51-6.15-1.53A8.59,8.59,0,0,1,828.23,807.63Z"/><path class="cls-92" d="M1025.16,809.55a13.16,13.16,0,0,1-.79,2.06c-2-.44-1.46-2.55-2.33-3.79A2.92,2.92,0,0,1,1025.16,809.55Z"/><path class="cls-51" d="M1095,833.93c0,.3,0,.6,0,.9a7.72,7.72,0,0,1-5.14-3.83Z"/><path class="cls-93" d="M953.11,389.5a25.18,25.18,0,0,1,.31-3.25c.6-2.76,1.17-.31,1.76,0Z"/><path class="cls-94" d="M908.89,355.9c0,2.4.7,4.89-.84,7.11C908.27,360.63,907.69,358.16,908.89,355.9Z"/><path class="cls-73" d="M873.06,466.14c-.58-.86-1.17-1.72-1.85-2.7,1.95-.28,2.79,1.26,4.12,1.72A2.14,2.14,0,0,1,873.06,466.14Z"/><path class="cls-61" d="M1075,852.89a6.13,6.13,0,0,1-2-5C1074,849.42,1075,850.94,1075,852.89Z"/><path class="cls-95" d="M982.19,656.06c-.47-.1-1.1,0-1.36-.33-.65-.71.21-.66.53-.69a4.65,4.65,0,0,1,3.59.83Z"/><path class="cls-3" d="M823.92,339.18a12.63,12.63,0,0,1-1-6l.21-.15c3.27,1.34,1.62,3.64,1.11,5.71C824.12,338.89,824,339,823.92,339.18Z"/><path class="cls-56" d="M834.92,814,833,813.9c-.33-1.24-.67-2.49-1-3.74A7.15,7.15,0,0,1,834.92,814Z"/><path class="cls-27" d="M1059.57,842c1.86.7,2.8,1.81,1.65,3.81A7.17,7.17,0,0,1,1059.57,842Z"/><path class="cls-96" d="M987,654a5,5,0,0,1,5.93,0l-1.59.18A5,5,0,0,1,987,654Z"/><path class="cls-3" d="M830.07,383.05c1.45,2,.82,4.26.88,6.44A13.87,13.87,0,0,1,830.07,383.05Z"/><path class="cls-3" d="M877,326.05l-1-1a6.35,6.35,0,0,1-.17-4.46l.31-.59A12.45,12.45,0,0,1,877,326.05Z"/><path class="cls-61" d="M1077.12,857.86a5.65,5.65,0,0,1-2.12-5A7.24,7.24,0,0,1,1077.12,857.86Z"/><path class="cls-3" d="M826.11,355.07c1.39,2,.8,4.22.82,6.38A12.12,12.12,0,0,1,826.11,355.07Z"/><path class="cls-94" d="M909.92,349.88c0,2.11.64,4.34-1.11,6.15C909,353.94,908.6,351.76,909.92,349.88Z"/><path class="cls-3" d="M879,340.05,878,338a3.73,3.73,0,0,1,.09-3.89C879.36,335.94,879.08,338,879,340.05Z"/><path class="cls-97" d="M845.14,841.9c1.22,1.94.9,4.09.83,6.2C844.74,846.16,844.85,844,845.14,841.9Z"/><path class="cls-98" d="M818.06,861.15c1.22-1,2.42-2.48,3.69-.06Z"/><path class="cls-99" d="M878.06,334.11,878,338c-1.23-1.54-.87-3.36-.88-5.1Z"/><path class="cls-100" d="M881,361c.3-.34.59-.69.88-1,.09.64.17,1.27.25,1.9l-.61,1.62Z"/><path class="cls-2" d="M1079.88,510.79c-.28,1.8-1.53,2.19-3.09,2.15Z"/><path class="cls-101" d="M971.16,578,970,578l-.06-3.71A3.17,3.17,0,0,1,971.16,578Z"/><path class="cls-102" d="M1085.91,818.88a2.9,2.9,0,0,1,.22,4.06C1085.63,821.61,1085.2,820.28,1085.91,818.88Z"/><path class="cls-103" d="M863.94,609l3.33-.22c-.69,1.47-1.77,1.06-2.6,1.29C864.42,609.75,864.18,609.39,863.94,609Z"/><path class="cls-104" d="M1068,809.92l-1-2c1.75-.17,3,.79,4.06,2l-3,0Z"/><path class="cls-105" d="M987,654l4.34.14a4.33,4.33,0,0,1-3.2,1C987.54,654.94,986.81,654.89,987,654Z"/><path class="cls-51" d="M1103.05,828.82a4.45,4.45,0,0,1-3.94-2.2C1100.63,827,1102.15,827.34,1103.05,828.82Z"/><path class="cls-106" d="M822,223.84l.09,2.23v0c-1,0-2,.66-3-.06Z"/><path class="cls-74" d="M871.94,844.84c.1,1.82.46,3.72-1.39,5C871,848.17,871.48,846.51,871.94,844.84Z"/><path class="cls-63" d="M1002.78,858a5.29,5.29,0,0,1,4.17,2C1005.32,859.86,1003.77,859.53,1002.78,858Z"/><path class="cls-20" d="M869.84,278c-1.07-1.57-.77-3.34-.76-5.08C870.24,274.5,869.93,276.28,869.84,278Z"/><path class="cls-59" d="M818.22,299.12c1.06,1.52.78,3.26.79,4.95C817.87,302.56,818.17,300.82,818.22,299.12Z"/><path class="cls-53" d="M967,522v2c-9.06,1.12-18.15.39-27.22.43-6.25,0-12.54.71-18.78-.43l1-2c5.57-1.13,11.19-.48,16.78-.44C948.19,521.65,957.61,520.89,967,522Z"/><path class="cls-103" d="M868,614.07a4.56,4.56,0,0,1,1.18-4c3.52-4.26,2.35-7.41-3.12-9,.2-2.4.94-5.79,3.55-2.53,1.83,2.29,4.87-3.13,4,.87-1.13,5.06,2.3,12.2-5.61,14.73Z"/><path class="cls-107" d="M921,524h46v1l-46,0-5,1C916.9,523.42,919.14,524.17,921,524Z"/><path class="cls-108" d="M967,522H922c.6-.28,1.19-.8,1.79-.8q20.7-.08,41.41,0C965.8,521.21,966.4,521.73,967,522Z"/><path class="cls-103" d="M866.12,600.93c-.53,1.68.75,3.64-1,5-.14.1-1-.35-1.08-.62C863.73,603.45,863.87,601.72,866.12,600.93Z"/><path class="cls-33" d="M971,608l1.87.92c-.86,2.87-2.76,1.91-4.69,1.6C968.35,608.38,970.42,609.11,971,608Z"/><path class="cls-109" d="M1012.31,525.65c-.7,0-1.38-.31-1.41-1.06a1.76,1.76,0,0,1,1.78-1.91c.76,0,1.08.64,1.08,1.34A1.48,1.48,0,0,1,1012.31,525.65Z"/><path class="cls-110" d="M1036,632c-1.34-.49-3.12-.43-3.29-2.41,0-.3.63-1,.93-.94,2,.16,1.93,1.94,2.42,3.28Z"/><path class="cls-111" d="M849,503c-.65-1,0-1.92.19-2.86,1,0,2.2-.06,2.27,1.23C851.58,503,850.11,502.83,849,503Z"/><path class="cls-112" d="M1009.15,648.1l-3.63-.28c1.57-1.5,2.58-.36,3.65.28Z"/><path class="cls-103" d="M861.33,601.55a6.37,6.37,0,0,1,.78,1.06c.06.13-.24.42-.37.64a6.15,6.15,0,0,1-.84-.94C860.83,602.21,861.13,601.89,861.33,601.55Z"/><path class="cls-113" d="M824.21,338.74c-.36-1.9.23-4-1.11-5.71,0-2.91-.25-5.81.59-8.68a5.2,5.2,0,0,0-1.64-5.3l0-11c0-1.33,0-2.66,0-4l.42-.41a1.32,1.32,0,0,1,1.58.4c0,3.47,0,6.95,0,10.42,0,1.79-.29,3.76,2,4.59a7.77,7.77,0,0,1,0,8,6.13,6.13,0,0,0,0,6.87,10.31,10.31,0,0,1,1,10.13,4.11,4.11,0,0,1-1-3C825.48,340.24,827.24,337.61,824.21,338.74Z"/><path class="cls-17" d="M966.1,338.24c-2.22,1.08-1.25,3.49-2.05,5.21-3.43-3-2.78-7.72,1.72-11.13.12,2.12.23,4,.35,6Z"/><path class="cls-114" d="M928,244.08v-4a12.44,12.44,0,0,0,2.57-3.47c1,5.58-3.19,10.35-1.75,15.88C925.56,249.86,928.2,246.86,928,244.08Z"/><path class="cls-59" d="M822,304.06c-.42-.24-1.21-.48-1.21-.73-.08-4.37-.06-8.74-.06-14.46,1.78,3.45,1,5.9,1.28,8.2a6.33,6.33,0,0,1,0,7Z"/><path class="cls-106" d="M822,226.07c3.69,1.45,2.11,4.11,1.05,6.14-.49.93-1.85-.08-1.79-1.25a47.69,47.69,0,0,1,.73-4.87Z"/><path class="cls-115" d="M826,327.05c0-2.66,0-5.33,0-8,3.26,2.72,2.46,5.69.54,8.74a1.79,1.79,0,0,1-.36-.31A2,2,0,0,1,826,327.05Z"/><path class="cls-116" d="M822.06,304c0-2.32,0-4.64,0-7,4.21,1.32.93,4.77,2,7Z"/><path class="cls-117" d="M913.27,360.88c-1.61-2.54-1.3-4.13-.52-6.66C914.37,356.75,914.06,358.34,913.27,360.88Z"/><path class="cls-118" d="M868,288.09c0,2.32,0,4.64,0,7C865.54,292.73,864.71,290.41,868,288.09Z"/><path class="cls-69" d="M857.73,231.51c-2.14,2.55-3.49,2.53-5.43.43Z"/><path class="cls-52" d="M845.24,486.21c-3.74-.38-1.79-2.8-1.44-4.64l1.41,4.68Z"/><path class="cls-72" d="M836,396V391l2,3.07A2.35,2.35,0,0,1,836,396Z"/><path class="cls-119" d="M875.79,320.55,876,325c-.32,0-.63,0-1,0C875.15,323.53,874.63,321.9,875.79,320.55Z"/><path class="cls-69" d="M854.57,227.62a8.05,8.05,0,0,1-1,.87c-.06,0-.37-.3-.57-.46a12.18,12.18,0,0,1,.94-1A6.23,6.23,0,0,1,854.57,227.62Z"/><path class="cls-120" d="M1078.6,491.59c-.2.21-.4.61-.59.61-.6,0-.78-.49-.6-1,.08-.2.55-.45.71-.38S1078.44,491.32,1078.6,491.59Z"/><path class="cls-121" d="M1065.18,411.9c-1,.77-2.12,1.49-4,.47l4-.48Z"/><path class="cls-122" d="M960,459c1.49-6,1-12.12,1-18.2,0-12.25-.1-24.5.09-36.75.06-4.34,1.92-8.3,4.21-12,.56-.9,1.44-1.59,2.46-.83a1.76,1.76,0,0,1,.19,2.64c-3.38,4.8-5,9.69-2.88,15.78.67,1.91-1.13,4.93-1.1,7.64.09,11.62,0,23.25,0,34.87,0,2.33-.14,4.67,1,6.83A5.7,5.7,0,0,1,960,459Z"/><path class="cls-123" d="M960,459h45.2v1.08H958.93l-.06,0Z"/><ellipse class="cls-124" cx="1014.49" cy="426.51" rx="0.35" ry="19.38"/><path class="cls-124" d="M1014.56,407.65c-.85-.94-.78-2.48-.36-2.64,1.34-.51.58.81.71,1.31S1014.71,407.13,1014.56,407.65Z"/><path class="cls-125" d="M1006.11,847.55c-.79-7.73-1.27-15.46-.23-23.22.84-6.33,3-9.16,7.35-9.45,5-.33,7.12,1.53,9,7.83a7,7,0,0,0,.69,1.29v0c.05,8,.58,16-1.14,23.9.51,2.5-.61,4.07-2.88,5C1010.73,854,1008.45,853,1006.11,847.55Z"/><path class="cls-126" d="M1022.92,824c1.83-.58,4.51,2.41,3.58,4.57a17.28,17.28,0,0,0-.34,13.84,1.11,1.11,0,0,1-.61,1.61c-1.13.28-1.43-.68-1.45-1.49-.08-4.12,0-8.25-.13-12.37,0-2.1.49-4.33-1-6.19Z"/><path class="cls-63" d="M1006.11,847.55c3.15,4.83,7.36,6.43,12.82,4.21a1.52,1.52,0,0,1,.06,2.15,17.44,17.44,0,0,1-7.37,0C1008.41,853.06,1005.55,851.73,1006.11,847.55Z"/><path class="cls-65" d="M1019,853.91l-.06-2.15,2.86-3.89C1024,850.8,1023.36,852.26,1019,853.91Z"/><path class="cls-63" d="M1009.37,856l.79.84c-.28.08-.6.3-.81.22a4.31,4.31,0,0,1-1-.71Z"/><path class="cls-58" d="M959.09,817.2c1.89.22,1.85,1.89,2.19,3.24.26,1,.28,2.15-1.14,2-1.81-.15-2-1.82-2.43-3.21C957.42,818.18,957.68,817.34,959.09,817.2Z"/><path class="cls-127" d="M973.11,837l-3.86-3.15c.29-.36.44-.77.64-.79C972,832.87,973.25,833.59,973.11,837Z"/><path class="cls-128" d="M984.73,843.75c1.78,1.92.93,3.18,1.39,4.71C984.22,847.05,985.44,845.76,984.73,843.75Z"/><path class="cls-129" d="M985.72,819.93l-1.1.67c-.14-.21-.42-.58-.37-.62a7.2,7.2,0,0,1,1-.86Z"/><path class="cls-130" d="M851,843.92c-.59.09-2.07,1.28-1.6.16,2.5-5.92,1.23-12.05,1.61-18.07.09-1.43.51-2.58,2-3.08,1.12,6.16.23,12.37.46,18.55C853.55,843.07,852.58,843.84,851,843.92Z"/><path class="cls-131" d="M851,843.92c1.79-1.54,2-3.57,2-5.78-.07-5.07,0-10.14,0-15.21h1c0,6.71,0,13.42.11,20.14,0,1.13.42,2.34-1.08,2.87A2.4,2.4,0,0,1,851,843.92Z"/><path class="cls-31" d="M876,814.92l2,2-1,1c-1.59,1.48-.31,4-2.27,5.74-2.08-2.13-1.09-4.49-.73-6.75Z"/><path class="cls-132" d="M860.78,809.81c0,.68-.19,1.44-1,1.32a1.93,1.93,0,0,1-1.3-1.13,1.1,1.1,0,0,1,1.19-1.56C860.45,808.47,860.68,809.14,860.78,809.81Z"/><path class="cls-51" d="M1100,832.92l-2,0c-.8-2.72-3.74-1.5-5.28-2.88-.67-.6-2-1-1.41-2.15a2.31,2.31,0,0,1,2.09-.78C1096.3,828.14,1099.64,828.88,1100,832.92Z"/><path class="cls-133" d="M1091.25,821.51c-1.36-1.37-2.8-2.2-1.72-3.92.26-.41,1.36-.84,1.57-.66C1092.45,818.08,1092,819.51,1091.25,821.51Z"/><path class="cls-134" d="M1116.82,818c-.15.27-.28.84-.61,1-.54.28-1-.19-.92-.7a1.57,1.57,0,0,1,.58-1.18C1116.42,816.83,1116.69,817.32,1116.82,818Z"/><path class="cls-133" d="M1091.16,824.18a3.36,3.36,0,0,1-1,.56c-.43.08-1,0-.76-.71.08-.23.46-.42.74-.5C1090.55,823.39,1091,823.38,1091.16,824.18Z"/><path class="cls-135" d="M1064.88,817.18c1.72,3.63,1.59,7.42,1,11.26a2.62,2.62,0,0,1-2,2.36,16.74,16.74,0,0,1-1.88.65c-7.81,1.78-8.94.88-8.91-7.08v-1c0-7.42,0-7.42,6.94-8.29l1.57,0C1062.86,815.49,1064.2,815.82,1064.88,817.18Z"/><path class="cls-136" d="M1052.91,810.41c1.34,1.85,1.26,3.1-.18,4.1-.3.21-1.19.16-1.28,0C1050.66,812.89,1051.93,812,1052.91,810.41Z"/><path class="cls-137" d="M1044.05,814.93l0-3c1.21.16,3.1-.38,3.22,1.27C1047.47,815.44,1045.32,814.65,1044.05,814.93Z"/><path class="cls-27" d="M1060,834.92c2.34,1.15.33,2.07-.22,3a1,1,0,0,1-1.68.1c-.89-1.29.56-2,.89-3.06Z"/><path class="cls-27" d="M1063.86,830.8a4.1,4.1,0,0,1,2-2.36c-.29,1.83-.59,3.65-.89,5.48a4.1,4.1,0,0,1-3-1Z"/><path class="cls-27" d="M1056,834.93c-.23,1.17.47,3.24-1.23,3.16-2-.1-.62-2-.78-3.17Z"/><path class="cls-138" d="M899,839.93v-30a5.91,5.91,0,0,1,1,3.79c0,13.45,0,26.9,0,40.35,0,1.91.3,4.29-2.93,3.86,0-.66,0-1.32,0-2,1.73-2.41.69-5.17,1-7.76C898.33,845.43,897.22,842.5,899,839.93Z"/><path class="cls-3" d="M832.05,382c3.67,3.36,1.6,7.73,2.21,11.64A23.79,23.79,0,0,1,832,382.06Z"/><path class="cls-139" d="M830,855.91c.17-.92.32-1.85.56-2.76,0,0,1,0,1.08.2a3.25,3.25,0,0,1-.63,3.56C830.7,856.58,830.36,856.25,830,855.91Z"/><path class="cls-140" d="M915,814.84c1,.35.93,1.21.86,2s-.46,1.66-1.48,1.52-1.11-1.05-.91-1.88S914,814.94,915,814.84Z"/><path class="cls-104" d="M1068,811.93c3,.91,3.31,4,4.79,6.09a1.58,1.58,0,0,1-.88,2.44c-1.31.56-2.5,0-2.67-1.32-.3-2.43-2.25-4.57-1.24-7.21Z"/><path class="cls-104" d="M1068,809.94c0,.66,0,1.33,0,2h0c-1.33-.26-2.93.58-4-1,1.07-1.59,2.69-.74,4-1Z"/><path class="cls-9" d="M1064.88,817.18l-3.3-2.12C1063.38,814.67,1065.14,814.36,1064.88,817.18Z"/><path class="cls-141" d="M1067.74,822.55v3C1066.53,824.42,1067.28,823.48,1067.74,822.55Z"/><path class="cls-3" d="M958,365V350c2.88,5.16,2.54,12,0,15Z"/><path class="cls-35" d="M1100.94,854c.34.65.68,1.3,1,1.95s1,1.58.85,2.15c-.41,1.28-1.58.69-2.45.42a5.75,5.75,0,0,1-3.41-2.57h0C1098.59,855.86,1100.32,856.07,1100.94,854Z"/><path class="cls-35" d="M1108,854.91h1l2,1c-1.19,1-2.43,2.51-4,1.25C1106.09,856.5,1107.52,855.66,1108,854.91Z"/><path class="cls-35" d="M1097,855.92c-.7-.23-1.4-.46-2.08-.73,0,0,.09-.7.23-.75,1.25-.35,1.54.59,1.86,1.47Z"/><path class="cls-142" d="M812,855.9c-2.77,0-3-1.87-3-4C811.8,851.94,812.1,853.78,812,855.9Z"/><path class="cls-10" d="M899,839.93c0,3.8,0,7.6,0,11.41,0,1.79.28,3.75-2,4.6,0-3.81,0-7.61,0-11.42C897,842.74,896.73,840.77,899,839.93Z"/><path class="cls-3" d="M868,306.06c.92,1.47,1.91,2.81,4,2a5.46,5.46,0,0,1-2.43,4.82A13.82,13.82,0,0,1,868,306.06Z"/><path class="cls-75" d="M943.31,816.64c-.4.8-.35,1.93-1.54,2.14-.1,0-.33-.2-.33-.31,0-1.24,1-1.43,1.82-1.88Z"/></svg>