<svg id="Ebene_1" data-name="Ebene 1" xmlns="http://www.w3.org/2000/svg" viewBox="0 0 1920 1080"><defs><style>.cls-1{fill:#b2b2b2;}.cls-2{fill:#fd2cf0;}.cls-3{fill:#fc2bf0;}.cls-4{fill:#fb2af0;}.cls-5{fill:#fc2af0;}.cls-6{fill:#fb2af1;}.cls-7{fill:#f82cef;}.cls-8{fill:#ef30e8;}.cls-9{fill:#f72ded;}.cls-10{fill:#e92fe7;}.cls-11{fill:#f62beb;}.cls-12{fill:#f22dec;}.cls-13{fill:#f72cee;}.cls-14{fill:#ef2fe8;}.cls-15{fill:#f62eec;}.cls-16{fill:#ef2eea;}.cls-17{fill:#e62fe6;}.cls-18{fill:#ea2ce5;}.cls-19{fill:#f22eec;}.cls-20{fill:#15041e;}.cls-21{fill:#f62ded;}.cls-22{fill:#f72df6;}.cls-23{fill:#f32eef;}.cls-24{fill:#f32deb;}.cls-25{fill:#f62ef0;}.cls-26{fill:#e72fe3;}.cls-27{fill:#f12eea;}.cls-28{fill:#cd2ecd;}.cls-29{fill:#ef2ee8;}.cls-30{fill:#dc2fde;}.cls-31{fill:#e52fe4;}.cls-32{fill:#eb2de3;}.cls-33{fill:#e42fe0;}.cls-34{fill:#f72fef;}.cls-35{fill:#f52ff1;}.cls-36{fill:#f52fef;}.cls-37{fill:#f032f1;}.cls-38{fill:#f232ef;}.cls-39{fill:#f130f0;}.cls-40{fill:#fb29f4;}.cls-41{fill:#fe2af4;}.cls-42{fill:#f430f1;}.cls-43{fill:#f031f0;}.cls-44{fill:#010001;}.cls-45{fill:#030104;}.cls-46{fill:#f52ef0;}.cls-47{fill:#f032f0;}</style></defs><path d="M1319.91,540q0,177.71.09,355.41c0,3.75-.85,4.59-4.59,4.59q-355.41-.15-710.82,0c-3.75,0-4.59-.84-4.59-4.59q.15-355.41,0-710.82c0-3.75.84-4.59,4.59-4.59q355.41.15,710.82,0c3.74,0,4.59.84,4.59,4.59Q1319.82,362.29,1319.91,540Z"/><path class="cls-1" d="M624.09,539.46q0-164.93-.12-329.86c0-4.63,1.25-5.61,5.71-5.61q330.36.16,660.72,0c4.63,0,5.61,1.24,5.61,5.7q-.16,330.36,0,660.72c0,4.63-1.25,5.61-5.7,5.61Q960,875.85,629.6,876c-4.63,0-5.62-1.24-5.61-5.7Q624.17,704.89,624.09,539.46Z"/><path d="M629.09,540q0-162.67-.11-325.36c0-4.54,1.12-5.66,5.66-5.66q325.36.18,650.72,0c4.54,0,5.66,1.12,5.66,5.66q-.18,325.37,0,650.72c0,4.54-1.12,5.66-5.66,5.66q-325.36-.18-650.72,0c-4.54,0-5.67-1.11-5.66-5.66Q629.19,702.69,629.09,540Z"/><path class="cls-2" d="M799,426.9c6.17-22.61,20.52-37.55,42.36-45.73,12.37-4.63,25.17-3.52,37.9-3.53q77.36-.11,154.71-.09c1.8,0,3.68-.31,5.12,1.22a31.68,31.68,0,0,1,4.07,4.2c1.77,7.37,1.3,14.72-.19,22.06-1.58,5.09-3.49,10.06-4.91,15.2-10.78,20.6-27.71,31.08-51,31.59-20.75.45-41.5-.07-62.25-.05q-10.44,0-20.88-.07c-2.2,0-4.28.11-6,1.88s-2.46,3.63-1.55,5.88a4.86,4.86,0,0,0,4.92,3.39A42.45,42.45,0,0,1,916,465c6.17,2.09,12.54,3.66,18.3,6.87,19.36,11.2,29.9,28.11,31.74,50.26.66,7.93,0,16,.21,24,.11,5.2,2.77,7.57,7,6.72,2.38-.47,4.18-1.9,4-4.34-.65-12.09,1.26-24.26-1.24-36.3-4-19-13.87-34.18-29.4-45.8-1.08-.8-2.72-1.2-3.29-3.48h54.32c6.59-1.07,13-2.56,18.95-5.85.43-.24,1-.7,1.33-.49,3.43,2.26,1.9-1.74,3-2.35,4.72-3.24,9.66-6.19,13.67-10.36a2.53,2.53,0,0,0,2.2-2v0c3-1.57,4.2-4.66,6-7.24l7.82-13.73c7.93,12.71,19.37,20,33.94,21.71,14.8,1.76,27.17-3.86,37.69-14.05,1.34.42,1,1.58,1,2.49,0,16.32.49,32.67-.29,48.95a135.16,135.16,0,0,1-25.18,72.87c-2,2.86-4.51,5.4-6.78,8.09a24.91,24.91,0,0,0-3,4,130.57,130.57,0,0,1-56.23,38.31c-1.55.54-3.08,1.14-4.62,1.72-6.79,1.22-13.37,3.33-20.19,4.53a122.07,122.07,0,0,1-18.72,1.75c-14.4.32-28.88.95-43.19-1-7.38-1-15.1-1-22-4.59-1.33-.68-3,0-4.39-.62-2.92.64-5-1.51-7.59-2.19-6.64-4.09-14.35-5.58-21.34-8.83-4.89-2-9.71-4.19-13.79-7.68a42.77,42.77,0,0,0-5.13-3.32,82.71,82.71,0,0,1-16.8-13,5.12,5.12,0,0,0-1.12-2.89c-.13-.68-.64-.38-1.06-.36a3.88,3.88,0,0,1-2.09-.73l-1.79-1.62c-3.21-3-4.89-7.39-9-9.43a139.69,139.69,0,0,1-27.94-43.68c-.23-3-3.48-5.49-1.4-8.83.33-.36.68-.71,1-1.06a6.77,6.77,0,0,1-1.11,1c-3.37.33-2.18-3.11-3.64-4.37A57.86,57.86,0,0,1,801,481.25c-1.22-3.29-1-6.86-2-10.19v.05c-.92-8.76-2.69-17.4-2.54-26.32A89.16,89.16,0,0,1,799,426.9Z"/><path class="cls-2" d="M954.92,277.09A30.71,30.71,0,0,1,960,294c-.05,22.45-.14,44.9,0,67.35,0,4.48-1.43,5.58-5.74,5.53-20.62-.22-41.24-.19-61.86,0-4.48,0-6.43-.8-6.35-6,.33-21.28.11-42.57.16-63.86A39.12,39.12,0,0,1,890.9,278c2.68-2.14,4-5.38,6.13-7.91,13.78-16.06,40.44-15.24,54.1,1.66C951.74,274,954,275.05,954.92,277.09Z"/><path class="cls-3" d="M1036.32,273c5.61,6.06,7.66,13.55,7.73,21.47.2,22.8,0,45.6.14,68.41,0,3.91-.35,5.45-5.12,4.36s-9.93-.42-14.92-.42c-16,0-32-.15-47.93.08-4.22.06-5.29-1.26-5.25-5.39.21-21,.11-41.94.09-62.91,0-14.61,5.19-26.47,17.88-34.54a27.51,27.51,0,0,1,6.72-3.06c7-.42,13.83-2.81,21-.56,2.59.81,4.8,2.87,7.76,2.53l1.56,1.21C1029,267.54,1033.67,269.06,1036.32,273Z"/><path class="cls-2" d="M1104.3,315.94c13.58,6.79,18.91,18.32,18.92,32.91,0,15.66.17,31.33,0,47-.18,13.59-4.85,24.86-17.78,31.33a62.36,62.36,0,0,1-10.76,3.51c-3.93,1-7.77,1.74-11.46-.92-1.34-1-3.12-1-4.76-1.32-3.29-.64-3.24-2.29-1.28-4.11-2,2.53-4.74,1.58-7.48.82l-2.75-2a5.88,5.88,0,0,1-.57-1.28,1.36,1.36,0,0,0-.63-.69,20.14,20.14,0,0,0-1.8-1.14l0,0c-.57-1.65-.18-4-2.94-4.06-4.09-5.55-5.56-11.95-5.61-18.65-.12-17.08-.22-34.16,0-51.23.14-9.35,3.08-17.78,10.48-24.13,3.67-.46,7.25-1,8.51-5.39.36-1.24,1.94-1.1,3-1.52C1086.47,311.43,1095.42,312.62,1104.3,315.94Z"/><path class="cls-2" d="M856.49,264.91c9.47,2.55,14,9.9,17.3,18.23a23.72,23.72,0,0,1,1.4,8.81c-.08,23.13-.13,46.27,0,69.41,0,4-.87,5.82-5.23,5.46-11-.89-21.81.86-32.51,3.37-5.83,1.23-10.68,4.52-15.72,7.43-2.2,1.27-4.09,3.16-6.79,3.43a28.91,28.91,0,0,1-.39-3.45q.12-44.58.32-89.17c0-6.07,2.92-11.05,6.78-15.53,2.92.33,2.71-2.81,4.33-3.9,7.27-7,20.34-9.21,29-4.93-3.39,4-3.39,4-9.43,4C849.55,270.12,852.57,265.85,856.49,264.91Z"/><path class="cls-3" d="M1020.9,805.72c3.25-7.67,8-14.52,11.94-21.8,1-1.83,12.93-3,14.18-1.51s-.19,2.46-.85,3.5c-4.3,6.7-8.56,13.44-13,20-1.71,2.53-1.74,4.64-.31,7.31,4.87,9,9.43,18.27,14.31,27.31,1.94,3.6.62,3.59-2.69,4.09-7.83,1.17-11.85-2.39-14.28-9.27-1.37-3.88-3.44-7.51-5-11.31s-3.24-3.35-5.32-.4a10.16,10.16,0,0,0-2.1,7c.25,3,0,6,.24,9,.36,3.82-1.3,4.82-4.89,4.84-7.35,0-7.31.23-7.27-7.11q.13-26.69.22-53.38c2.89-1.86,6.09-.9,9.15-.89,2.29,0,2.34,1.84,2.33,3.59q0,8.91,0,17.83c0,1.1-.3,2.46,1.27,2.82C1020,807.58,1020.49,806.65,1020.9,805.72Z"/><path class="cls-4" d="M905.88,838a19.49,19.49,0,0,1-5.46-11.37,80.08,80.08,0,0,1,.57-28.67c.5-.44-.08.14.27-.39.8-1.18,4-1.45,1.62-3.92,2.43-7.8,8.55-11.46,15.9-12.2,11-1.12,18.94,3.16,22.39,11.93,4.82,12.29,4.48,25,.84,37.57-.67.89-1.24,2-2.63,1.35-.1-.07-.18-.21-.32-.27a3.59,3.59,0,0,1,.63.8,3.88,3.88,0,0,1-.42,3.4l-.19-.27.21.25c-7,10.14-23.13,11-31.7,2.79A9.34,9.34,0,0,0,905.88,838Z"/><path class="cls-5" d="M879.35,783.82c4.67.32,7.55,3.43,9.29,7.14,4.29,9.11,1.94,20.49-4.22,25.1-4.6,1.58-4.42-1.58-4.49-4.5,4.36-3.95-.66-4.8-2.27-6.78-1-2.11-1-4.49-1.69-6.69a5.37,5.37,0,0,0-5.43-4.13c-4.64-.17-5.38.42-5.5,5.21-.27,10.81.69,11.53,11.11,8.19.63-.2-.15.11.48-.1,2-.37,4.13-1.14,4.87,1.81-1.87,1.74-1.65,4-1.53,6.23a13.59,13.59,0,0,1-1,5.21,4.3,4.3,0,0,1-.78,1.16c-1.58.67-2.26,2.16-3.17,3.47-1,1.46-2.11,1.2-3-.22-1.79-4.39-5.29-3.6-8.77-2.88-1.57,5.66-.66,11.45-.57,17.16.05,3.74-1.79,4.94-4.59,4.42-2.63-.49-6.64.29-6.58-4.67.14-13.08-.06-26.15.45-39.23.17-4.43-.38-8.87-.44-13.31,0-2.22.63-3.53,3.06-3.45C862.82,783.25,871.13,782.13,879.35,783.82Z"/><path class="cls-6" d="M956.83,834c-2.09-2.7-2.68-6-3-9.17C952.73,813,951.49,801,957.92,790c1-1.66,1.9-3.51,4-4.08,2.66-.75,5.38-1.4,7.55-3.25s4.7-1.1,7.11-1.2c.87,0,1.67.28,1.81,1.27a1.72,1.72,0,0,1-1.34,2.08c4-4.4,8-.48,12.06,1l0,0c.1,2,1.52,3.07,2.94,4.14,1.26,1.73,2.43,3.49,2,5.8.52.73,1.51,1.24,1.12,2.4-3.41,4.41-5.64,4.83-9.28,1.77-.38-.32-1.13-.66-1-1,.77-2.28-1-4.34-.49-6.54a2,2,0,0,0,.28-.21c-.53.4.2-.2-.37.22-3,.21-5.18-2.46-8.26-2-2.08.32-4.33-.18-5.95,1.71l.07,0c-4.11,1.5-5,5.27-5,8.75,0,8.59-.66,17.19.23,25.8s5.3,11.64,13.37,8.86c2.81-1,5-2.38,5.18-5.67l0,.07c1.3-5.55,2-5.9,7.52-3.55.1,0,.09.42.17.44,3.64.82,3.63.82,2.93,5.34a4.88,4.88,0,0,1-.42,1.92l0,0a7.07,7.07,0,0,0-4.13,5.85l0,0c-5,3.75-11.09,3.52-16.7,4.26-5.16.68-10-1.86-13.09-6.56A12.12,12.12,0,0,0,956.83,834Z"/><path class="cls-7" d="M878,820.93c-1.55-3.38,1.47-6.52.53-10-.22-.84,1.49-1,2.47-1h0c.25,2.53-1.12,6,3.4,6.13-3,1.41-2,3.68-1.12,5.8,2.58,6.24,5.12,12.5,7.92,18.65,1.47,3.23.47,3.94-2.73,4-9.25.18-9.25.27-13.86-12.41a8.17,8.17,0,0,1,3.29-5.78C880.65,824.37,879.83,822.76,878,820.93Z"/><path class="cls-8" d="M879.35,783.82c-7.48,0-15,.3-22.42,0-4.22-.15-5.47,1.71-4.78,5.34.56,3-.3,6.36,2.38,8.77-3.49,2.84-1.51,6.85-1.92,10.25-1.26,10.23-.65,20.57-.35,30.84.09,3.37,4.14,3.53,6.94,3.74,3,.24,2.8-2.17,2.81-4.18,0-4,0-8,0-12,0-1.61-.4-3.38,1.19-4.6,0,5.83-.26,11.67.09,17.48.25,4.09-1.41,5.32-5.12,4.94-1.48-.15-3-.16-4.49-.17-1.91,0-2.66-1-2.66-2.82q0-28.46,0-56.9c0-1.24.16-2.54,1.74-2.45C861.64,782.58,870.69,780.2,879.35,783.82Z"/><path class="cls-9" d="M983.91,829.82c-.18,1.89.67,3.52,1.53,5.39-4.71-.34-8.75,1.41-12.77,3-2.23.9-3.11.5-4.72-1.53-4.94-6.23-4.22-13.2-4.09-20.34.1-5.76,1.43-11.73-.85-17.26-1.13-2.72,3.51-1.9,2.07-5.43-1.18-2.9,3.48-.36,5.1-1.61-2.9,3.24-4,7-4.33,11.38a167.47,167.47,0,0,0,.31,21.95c.3,4.57,1.62,8.21,6.57,9.26C977.53,835.69,981.62,834.73,983.91,829.82Z"/><path class="cls-10" d="M918.62,605.12c2.18-2,4.18-2,6.17.36s5,1.69,7.45,2.19c18.38,3.66,37,3.92,55.63,3.15,11.57-.47,23.19-1.75,34.34-5.42a10.56,10.56,0,0,1,4.93-.33,131.91,131.91,0,0,1-43.53,7c-17.31,0-34.66.6-51.69-3.23C927.45,607.88,922.56,608.1,918.62,605.12Z"/><path class="cls-11" d="M1069.66,425.15l13.13-4.31c-1.32,2.93-4.91,2.49-5.9,5.88,3.65,0,6.4,1.86,9.43,3.48,4.73,2.52,9.54-1.23,14.34-2.12,1.55-.29,3-1.1,4.74-.91C1094.53,434.43,1079.69,433.15,1069.66,425.15Z"/><path class="cls-12" d="M1104.3,315.94c-2.12-.36-4.28-.56-6.34-1.12a29.81,29.81,0,0,0-17.1,0c-2.72.85-5.81.5-5.26,5.25.34,3-6,4.14-9.7,1.92C1074,312.46,1091.91,308.77,1104.3,315.94Z"/><path class="cls-13" d="M985,791.93c-.12.83-1.19,2.29.68,2,1.15-.16,2.12-1.49,3.76-1a5.81,5.81,0,0,1-.45,1.26c-1,1.44-4.33,2.33-2.53,4.25,1.13,1.21,4.31,4.51,6.66.22.24-.44,1.18-.49,1.8-.73,3.29,4.12-.52,4.13-2.88,5-4.39.58-8.1.83-8.35-5.58-.16-4.19-4.38-6.45-9.22-6a41,41,0,0,0-4.35.81c.24-2,1.71-2.06,3.27-2.21,1.85-.18,3.9.75,5.46-1.31.81-1.08,1.82-.08,2.3.8C982,791,983,792.1,985,791.93Z"/><path class="cls-13" d="M989.15,785.82c-1-.06-2.28.26-2.89-.25-3.62-3-6.79-1-10,.63-1.71.85-3.21,2.5-5.78.95,2.1-1.88,5.15-2,7.12-4.53-3.58-1.13-6.17-.87-8.57,2-1.78,2.11-4.1,4.21-7.06,1.32C967.27,779.62,983.17,779.55,989.15,785.82Z"/><path class="cls-9" d="M956.83,834c2.54-.42,3.51,1.43,4.43,3.18,2.35,4.44,6.51,5.9,11,6.51,3,.42,5.42-.64,4.76-6.23,4.21,7.2,8.69,2.49,12.92,2.46C982.12,848.38,961.19,847,956.83,834Z"/><path class="cls-14" d="M1024.39,262.92c-2.3.56-4.82,4.38-6.63-1.18-.41-1.27-6-2.29-8.17-1.25-4.84,2.33-9.34,0-13.93.46C1005.57,256.71,1015.12,257.78,1024.39,262.92Z"/><path class="cls-15" d="M889.69,594.1a6.13,6.13,0,0,0,3.64-1.32c.78-.66,1.92-1.08,2.67-.23s-.68,1.16-.9,1.76c-.71,2,.8,1.56,1.84,1.46,1.34-.13,4.14-3.37,3,1.5,0,.12.86.69,1.09.58,4.92-2.36,6.48,3.47,10.15,4.12-.07.32-.14.64-.2,1A75.82,75.82,0,0,1,889.69,594.1Z"/><path class="cls-16" d="M905.88,838c3.89.51,6.37,3.75,10.43,4.65,8.65,1.9,15.39.74,21.2-5.81.37-.41,1.18-.43,1.78-.63C935.41,846.84,912.46,848.71,905.88,838Z"/><path class="cls-17" d="M1020.9,805.72c-.17,1.66-.36,3.82-2.39,3.67-2.31-.17-1.5-2.57-1.54-4-.11-5.28-.29-10.58,0-15.84.27-4.32-1.12-6.2-5.55-5.62a43,43,0,0,1-5.45.07c2.79-4.12,6.8-1.86,10.17-1.59,2.67.21,1.69,3.17,1.71,5,.08,5.47,0,10.94,0,16.41C1017.83,806,1018.28,807.62,1020.9,805.72Z"/><path class="cls-18" d="M799,426.9c-1.31,9.67-.88,19.41-.94,29.13,0,3.65-.12,7.37,1.78,10.59,1.21,2.06-.76,3-.9,4.49-1.68-3.85-1.67-8-2-12.07a73.81,73.81,0,0,1,0-25C797.4,431.58,797.71,429.1,799,426.9Z"/><path class="cls-19" d="M1021,454.23c-.08,2.27.93,4,2.82,5.74-6.62-5.71-11.43,2.43-17.53,2-2.47-.2-5.63,1.11-8.59,1C1005.51,460.16,1013.76,458.56,1021,454.23Z"/><path class="cls-20" d="M796.92,434q0,12.51,0,25C794,455.58,794,437.42,796.92,434Z"/><path class="cls-9" d="M994.09,834v-8.57c-1.31,2-1.69,4.14-4.26,1.43-2.3-2.42-4.8.17-5.94,3,.47-1.95-1.09-4.83,1.54-5.72,3.12-1,6.57-.64,9.82-.09,1.33.23,1.22,1.78,1,2.95C995.78,829.44,995.55,831.93,994.09,834Z"/><path class="cls-21" d="M815,381.05c5.07-3,10.47-5.63,15.09-9.23,2.57-2,4.38-3.52,7.42-1.63-7.27,4-15.22,6.78-21.68,12.28C814.88,383.25,814.89,381.77,815,381.05Z"/><path class="cls-5" d="M878,820.93c1.83,0,3.83-.14,3.94,2.53.07,1.67.58,3-2.34,3.45-1.87.27-3.34,3.36-5,5.19-1-.71-.65-1.79-.79-2.74C874.08,826,876,823.41,878,820.93Z"/><path class="cls-22" d="M856.49,264.91c-5.17,6-11.8,4.06-18.23,3.3,5.38-2.22,12,.72,16.74-4.14Z"/><path class="cls-12" d="M934.31,471.91c-6.11-2.29-12.65-3.38-18.3-6.87C922.8,465.49,928.77,468.11,934.31,471.91Z"/><path class="cls-19" d="M1038.05,420.23c-1.22-6,2.81-10.28,4.91-15.2A32.48,32.48,0,0,1,1038.05,420.23Z"/><path class="cls-7" d="M878,820.93c.81,3.9-2.82,5.6-4.18,8.43-1.09-1.28-2.11-2.59-1.84-4.44,1.09.35,2,.24,2-1.14C874,820.93,876,820.89,878,820.93Z"/><path class="cls-14" d="M1036.32,273c-3.92-2-6.42-6.61-11.75-6.14-1.13.09-1.19-.53,1.38-2.68C1030.54,265.73,1033.7,269,1036.32,273Z"/><path class="cls-9" d="M990,839.87c-.18-2.12-2.19-.6-3.3-1.66,2-2.44,3.88-4.67,7.43-4.19A9.25,9.25,0,0,1,990,839.87Z"/><path class="cls-23" d="M902.88,793.62c1.93,1.75,7.65,1.62,3.12,7.12-1.17-2.3-2.06-4.94-5-2.81A6.4,6.4,0,0,1,902.88,793.62Z"/><path class="cls-24" d="M838.86,555.07c5.37.88,6.81,5.54,9,9.43A40.33,40.33,0,0,1,838.86,555.07Z"/><path class="cls-25" d="M805.79,498.09c1.64,1.06,1.57,4,4.25,3.92h0c-1.3,3.28,1.16,6.2.88,9.38C808.69,507.16,806.38,503,805.79,498.09Z"/><path class="cls-11" d="M1061,416c2-.55,3.7-2.71,6.18-1.18-.84,1.92-3.17,2.9-3.24,5.24C1062.65,419,1061.32,417.86,1061,416Z"/><path class="cls-26" d="M897,270.11c-.42,3.9-2.6,6.43-6.13,7.91A19.6,19.6,0,0,1,897,270.11Z"/><path class="cls-27" d="M1042.85,434.66c-1.43,2.89-1.41,7-6,7.24Z"/><path class="cls-28" d="M992,802.91c1.68-1.24,4.45-1.87,2.88-5-.28-.72-.55-1.45-.83-2.18,2.64,1.08,2.8,3.43,2.32,5.58S993.78,803.12,992,802.91Z"/><path class="cls-29" d="M826,269c-.76,2.05.6,6.46-4.33,3.9C822.9,271.36,823.85,269.51,826,269Z"/><path class="cls-24" d="M853,566c.35,1.36,3.44,2.1.94,4.11-1.72-1-3.53-1.92-4.27-4L853,566Z"/><path class="cls-13" d="M992.06,789.94c-3.11.14-4.95-.63-2.94-4.14C990.77,786.7,992.11,787.83,992.06,789.94Z"/><path class="cls-18" d="M798.92,471.06c1.71,3.19,1.92,6.68,2,10.19C799.29,478.05,799.1,474.56,798.92,471.06Z"/><path class="cls-16" d="M939.27,836.2l-.27-4.28,3-1C941.83,833.06,941.38,835.06,939.27,836.2Z"/><path class="cls-27" d="M1036.86,441.88c.06,1.43,1.41,2.69.55,4.29-1.83.29-1.51-1.95-2.75-2.3Z"/><path class="cls-30" d="M954.92,277.09c-1.87-1.34-3.82-2.63-3.79-5.32C952.8,273.26,954.68,274.59,954.92,277.09Z"/><path class="cls-31" d="M1043.15,383a7.34,7.34,0,0,1-4.07-4.2C1041.51,379.13,1043.14,380.26,1043.15,383Z"/><path class="cls-32" d="M1088,565c.26-1.92.79-3.63,3-4C1090.79,562.92,1089.42,564,1088,565Z"/><path class="cls-33" d="M870.77,583.1a6,6,0,0,1,5.13,3.32A10.73,10.73,0,0,1,870.77,583.1Z"/><path class="cls-11" d="M1063.91,420.07l3.06,1-.06,2.15Z"/><path class="cls-25" d="M809.36,494.86c-2.59-2.21-2-3.82-.76-5.4,2.27-2.83,2-6.08.66-8.92-2-4.22-1-8.32-.32-12.62,1.77,4.29.66,9.1,3,13.4C814.47,485.9,810.45,490,809.36,494.86Z"/><path class="cls-34" d="M846.16,550.2c-1.48-1.55-3-3-4.36-4.64-1.15-1.43-.51-2.8.7-4,.85-.82,1.73-1.81,3-1.3,2.1.85.68,2.29.23,3.3C844.71,545.91,848.6,547.61,846.16,550.2Z"/><path class="cls-35" d="M986.88,550.34a11,11,0,0,0-1.56-1.69c-1.47-1-4.59-1.09-3.57-3.73.85-2.18,3,.33,4.62.26C989.42,545.06,987.48,548.18,986.88,550.34Z"/><path class="cls-36" d="M1103.8,534.67a7.85,7.85,0,0,1-1.36-1.8c-.58-1.88-3.3-3.09-1.78-5.58a1.29,1.29,0,0,1,1.21-.07c1.53,1.82,3.71,3.38,2.88,6.27C1104.67,533.76,1104.38,534,1103.8,534.67Z"/><path class="cls-15" d="M916.85,595c-1.27-.27-2.93.36-3-1.21-.12-1.78,1.61-1.74,2.86-1.78,1.09,0,2.65-.27,2.79,1.24C919.65,595.36,917.69,594.58,916.85,595Z"/><path class="cls-19" d="M1035.28,406.57c-.28-2.58-.84-4.33,1.15-5.22.46-.21,1.64.08,1.74.39C1038.92,404,1037,404.78,1035.28,406.57Z"/><path class="cls-25" d="M810,502c.18-1.39-.47-3,1.44-4.22.93,2,2.57,3.95-1.44,4.22Z"/><path class="cls-37" d="M1109.28,444.07c-1,1.33-2.2.84-3.39.61,0-.5-.11-.95,0-1C1107.06,442.87,1108.19,442.67,1109.28,444.07Z"/><path class="cls-12" d="M924.27,477c-1,1.44-2.11,1-3.33.5,0-.33-.11-.78,0-.87C922.11,475.86,923.24,475.67,924.27,477Z"/><path class="cls-36" d="M1098.08,524.22c.14-.79.15-1.6,1.08-1.36.3.07.59.74.61,1.15,0,.62-.08,1.44-1,1.2C1098.44,525.13,1098.26,524.5,1098.08,524.22Z"/><path class="cls-12" d="M923.23,469c.4.36,1,.64,1,.94,0,.9-.73,1-1.35.76-.37-.14-.6-.65-.89-1Z"/><path class="cls-35" d="M986.8,552.88l.92.33a9.85,9.85,0,0,1-.47,1.17,1.65,1.65,0,0,1-.72-.26A7.07,7.07,0,0,1,986.8,552.88Z"/><path class="cls-24" d="M856.39,563.06a4.56,4.56,0,0,1,1-.81c.17-.07.49.23.75.36a4.61,4.61,0,0,1-.83.92C857.2,563.61,856.83,563.29,856.39,563.06Z"/><path class="cls-24" d="M853,566c.18-.81.35-1.67,1.48-1.43.23,0,.58.49.53.65-.32,1.06-1.28.66-2,.78Z"/><path class="cls-38" d="M920.25,270c2.1-1.11,3.48-1.2,5,.37C923.53,271.35,922.17,271.36,920.25,270Z"/><path class="cls-39" d="M944,270.53a2.27,2.27,0,0,1-3.07-.11c-.1-.09.21-1,.45-1C942.49,269.06,943.61,269,944,270.53Z"/><ellipse class="cls-40" cx="1003.99" cy="364.54" rx="41.64" ry="0.3"/><path class="cls-40" d="M1036,364.55c3-.43,4.5-1.94,6.3-.75a1,1,0,0,1-.14,1.66C1040.24,366.65,1038.8,365.24,1036,364.55Z"/><path class="cls-41" d="M1117,371.39q0-12.5,0-25c0-1.49-.2-3.06.77-4.34a2.74,2.74,0,0,1,1.56-1.08c1-.15,1.43.77,1.52,1.59a35.39,35.39,0,0,1,.14,4c0,15,0,30,0,45,0,3-.35,5.93-.63,8.89a2.19,2.19,0,0,1-.89,1.57c-1,.38-1.63-.51-1.82-1.23a17.6,17.6,0,0,1-.6-4.39C1116.93,388.05,1117,379.72,1117,371.39Z"/><path class="cls-42" d="M1096.06,424.15c2-1.11,2.85-3.31,5.17-2.37.74.3.82,1.49.25,2.16C1100.08,425.56,1098.44,425.15,1096.06,424.15Z"/><path class="cls-11" d="M1068.19,419c.5.46,1,.73,1,1,0,.82-.73.91-1.33.9-.21,0-1.07.68-.78-.34A6.26,6.26,0,0,1,1068.19,419Z"/><path class="cls-21" d="M821,368a7.39,7.39,0,0,0,.31.94c.69,1.53,4.64,1.87,2.32,4.28-2,2.09-3.94-1.47-6.24-1.51-.77,0-.08-1.44,0-2.14.35-2.22,2.24-1.32,3.57-1.56Z"/><path class="cls-21" d="M821,368.05c-.07-2-2.55-1.72-3.57-3.16,3.3-1.88,4.84.68,6.88,1.8-.57,2-2.17,1.1-3.31,1.35Z"/><path class="cls-43" d="M827.71,368.18c.82.07,1.6.07,1.47,1,0,.28-.66.64-1.06.69-.64.09-1.41,0-1.3-.93C826.86,368.62,827.47,368.38,827.71,368.18Z"/><path class="cls-44" d="M931.68,813.57a52.37,52.37,0,0,1-.38,12.94c-1.14,5.87-4.2,8.68-9.23,8.59s-8.66-3.15-9.6-8.42a80.61,80.61,0,0,1-.26-25.33c.52-3.76,1.61-7.62,5.71-9.26,6.28-2.5,11.23,0,13,6.6a16.91,16.91,0,0,1,.71,3.92C931.74,806.26,931.68,809.92,931.68,813.57Z"/><path class="cls-16" d="M932.92,831.18c2.68-1.08,4.15-2.31,5.88-.71a1.13,1.13,0,0,1,.16.92C937.38,832.33,935.76,832,932.92,831.18Z"/><path class="cls-23" d="M908.92,790.07c.85,0,1.61.31,1.74,1.22a.91.91,0,0,1-1.12,1.1,3,3,0,0,1-1.8-1.26C907.45,790.49,908.25,790.15,908.92,790.07Z"/><path class="cls-45" d="M876.82,808.86c-3.5,3.27-7.81,2.14-11.88,2.09-1.83,0-1.75-1.7-1.75-3,0-4.33,0-8.65-.06-13,0-1.48.2-2.38,2-2.75,9.36-1.93,13.23,1,13.46,10.45a16.25,16.25,0,0,0,.29,2A5.35,5.35,0,0,1,876.82,808.86Z"/><path class="cls-46" d="M859.08,817c.24,1.82,1.32,3.8-1.6,3.85-1,0-2.51-.48-1.73-1.56,1.58-2.18-1.36-6,1.54-6.6S858.39,815.7,859.08,817Z"/><path class="cls-7" d="M876.82,808.86q1-2.13,2.06-4.26c1.57,1,4.36.14,4.59,3.25.17,2.12-1.15,2-2.45,2.08h0C880.28,807,878.41,808.47,876.82,808.86Z"/><path class="cls-47" d="M872.5,787.66c-.23-.2-.76-.42-.85-.76a1,1,0,0,1,1-1.35,1.25,1.25,0,0,1,1,.7C873.84,787,873.46,787.48,872.5,787.66Z"/><path class="cls-13" d="M985.21,792.45c-.84-2-1.69-3.39-.26-5.27C985.94,789,985.65,790.48,985.21,792.45Z"/><path class="cls-9" d="M987.23,829.43c.86.28,1.33.75,1.12,1.47a1.32,1.32,0,0,1-1,.67,1,1,0,0,1-.93-1.35C986.47,829.88,987,829.65,987.23,829.43Z"/></svg>